<?xml version="1.0" encoding="UTF-8"?>
<svg xmlns="http://www.w3.org/2000/svg" xmlns:xlink="http://www.w3.org/1999/xlink" viewBox="0 0 1025 636">
  <defs>
    <clipPath id="eee929a8-9235-4d67-975a-0cfeb5fdefe2">
      <rect id="a1860c2e-2b9e-42b2-af23-66ef1c2c1ec9" data-name="SVGID" x="300" y="200" width="50" height="50" fill="#d0662b"></rect>
    </clipPath>
    <clipPath id="a3c0e08c-76e9-4b01-be4b-9d33cdfd7c0e">
      <rect id="a3fd37c3-4624-40e5-b4da-af252924bc50" data-name="SVGID" x="112.5" y="200" width="50" height="50" fill="#d0662b"></rect>
    </clipPath>
    <clipPath id="b951e80f-a647-4a4f-aee5-00201ee8b19a">
      <rect id="faecaae0-2c69-44ca-9462-913ed1fbcb8e" data-name="SVGID" x="490" y="200" width="50" height="50" fill="#d0662b"></rect>
    </clipPath>
    <clipPath id="eee17c1c-9a25-49ef-98aa-a5d5521823b6">
      <rect id="be98e3d7-97b9-43a0-8c7d-f39696652af7" data-name="SVGID" x="675" y="200" width="50" height="50" fill="#d0662b"></rect>
    </clipPath>
    <clipPath id="fb0a79ca-b916-4650-afda-b03b2b2599c4">
      <rect id="a966256a-3eeb-4161-bfd0-16ae210c1d3c" data-name="SVGID" x="112.5" y="25" width="50" height="50" fill="#d0662b"></rect>
    </clipPath>
    <clipPath id="bf767f00-78e4-42b7-bbc4-59d799af5e2e">
      <rect id="e5f90297-9d8c-4545-9403-28c7b81b815c" data-name="&lt;Rechteck&gt;" x="162.5" y="25" width="50" height="50" fill="none"></rect>
    </clipPath>
    <clipPath id="b74aa08b-1f79-4473-89e4-bafeb1878b5e">
      <rect id="b0884eaf-8e53-4bd9-8038-7d00a6ceaf29" data-name="SVGID" x="112.5" y="87.5" width="50" height="50" fill="#d0662b"></rect>
    </clipPath>
  </defs>
  <g id="b99cdb95-c978-466c-9f2a-abe98540605d" data-name="Farbflächen">
    <rect width="1025" height="636" fill="#99bedd"></rect>
    <g>
      <rect x="61.5" y="24" width="902" height="51.99" fill="#99bedd"></rect>
      <path d="M962.5,25V75H62.5V25h900m2-2H60.5V77h904V23Z" fill="#fff"></path>
    </g>
    <g>
      <rect x="61.6" y="86.6" width="714.4" height="101.87" fill="#337ebb"></rect>
      <path d="M775,87.5v100H62.5V87.5H775m1.9-1.9H60.6V189.4H776.9V85.6Z" fill="#fff"></path>
    </g>
    <g id="bcaf78e3-8e7b-462d-947c-166e7bc1ac23" data-name="Linien">
      <line x1="777" y1="137.5" x2="812.5" y2="137.5" fill="none" stroke="#005eaa" stroke-miterlimit="10" stroke-width="2.38"></line>
      <line x1="775" y1="350" x2="812.5" y2="350" fill="#669ecc" stroke="#005eaa" stroke-miterlimit="10" stroke-width="2.45"></line>
      <line x1="112.5" y1="189.5" x2="112.5" y2="200" fill="none" stroke="#fff" stroke-miterlimit="10" stroke-width="1.83"></line>
      <polyline points="300 187.5 300 198 300 198" fill="none" stroke="#fff" stroke-miterlimit="10" stroke-width="1.89"></polyline>
      <line x1="487.5" y1="187.5" x2="487.5" y2="198" fill="none" stroke="#fff" stroke-miterlimit="10" stroke-width="1.83"></line>
      <line x1="675" y1="187.5" x2="675" y2="198" fill="none" stroke="#fff" stroke-miterlimit="10" stroke-width="1.83"></line>
      <line x1="112.5" y1="525" x2="112.5" y2="535.5" fill="none" stroke="#fff" stroke-miterlimit="10" stroke-width="1.83"></line>
      <line x1="300" y1="525" x2="300" y2="535.5" fill="none" stroke="#fff" stroke-miterlimit="10" stroke-width="1.83"></line>
      <line x1="487.5" y1="525" x2="487.5" y2="535.5" fill="none" stroke="#fff" stroke-miterlimit="10" stroke-width="1.83"></line>
      <line x1="675" y1="525" x2="675" y2="535.5" fill="none" stroke="#fff" stroke-miterlimit="10" stroke-width="1.83"></line>
      <line x1="775" y1="412.5" x2="812.5" y2="412.5" fill="#669ecc" stroke="#005eaa" stroke-miterlimit="10" stroke-width="2.45"></line>
      <line x1="775" y1="475" x2="812.5" y2="475" fill="#669ecc" stroke="#005eaa" stroke-miterlimit="10" stroke-width="2.45"></line>
      <line x1="887.5" y1="525" x2="887.5" y2="535.5" fill="none" stroke="#005eaa" stroke-miterlimit="10" stroke-width="1.83"></line>
      <line x1="112.5" y1="75" x2="112.5" y2="85.5" fill="none" stroke="#fff" stroke-miterlimit="10" stroke-width="1.83"></line>
    </g>
  </g>
  <g id="a4547972-b4d2-444c-94fb-c383f26b8232" data-name="Texte">
    <g>
      <rect x="249" y="199" width="152" height="326.96" fill="#99bedd"></rect>
      <path d="M400,200V525H250V200H400m2-2H248V527H402V198Z" fill="#fff"></path>
    </g>
    <g>
      <rect x="436.5" y="199" width="152" height="326.96" fill="#99bedd"></rect>
      <path d="M587.5,200V525h-150V200h150m2-2h-154V527h154V198Z" fill="#fff"></path>
    </g>
    <g>
      <rect x="624" y="199" width="151.9" height="326.92" fill="#99bedd"></rect>
      <path d="M775,200V525H625V200H775m1.9-1.9H623.1V526.9H776.9V198.1Z" fill="#fff"></path>
    </g>
    <g>
      <rect x="61.5" y="199" width="152" height="326.96" fill="#99bedd"></rect>
      <path d="M212.5,200V525H62.5V200h150m2-2H60.5V527h154V198Z" fill="#fff"></path>
    </g>
    <g opacity="0.6">
      <rect x="62.5" y="450" width="712.5" height="50" fill="#005eaa"></rect>
    </g>
    <g opacity="0.6">
      <rect x="62.5" y="387.5" width="712.5" height="50" fill="#005eaa"></rect>
    </g>
    <g opacity="0.6">
      <rect x="62.5" y="325" width="712.5" height="50" fill="#005eaa"></rect>
    </g>
    <g>
      <rect x="61.5" y="536.5" width="902" height="51.99" fill="#99bedd"></rect>
      <path d="M962.5,537.5v50H62.5v-50h900m2-2H60.5v54h904v-54Z" fill="#fff"></path>
    </g>
    <g>
      <rect x="811.5" y="86.5" width="151.9" height="439.42" fill="#99bedd"></rect>
      <path d="M962.5,87.5V525h-150V87.5h150m1.9-1.9H810.6V526.9H964.4V85.6Z" fill="#005eaa"></path>
    </g>
    <g>
      <path d="M226.5,56.5V42.2h5l2.5.2a5.1,5.1,0,0,1,2.1,1,6.2,6.2,0,0,1,1.7,2.5,9,9,0,0,1,.6,3.4,8.8,8.8,0,0,1-.4,2.9,7.5,7.5,0,0,1-1,2,4,4,0,0,1-1.3,1.3,4.5,4.5,0,0,1-1.7.8l-2.3.2Zm1.9-1.7h3.1a6.5,6.5,0,0,0,2.2-.3,2.3,2.3,0,0,0,1.3-.7,3.9,3.9,0,0,0,1-1.8,7.9,7.9,0,0,0,.4-2.8,6.4,6.4,0,0,0-.7-3.4,3.4,3.4,0,0,0-1.8-1.6,7.3,7.3,0,0,0-2.5-.3h-3Z" fill="#005eaa"></path>
      <path d="M247.9,55.2a4.4,4.4,0,0,1-1.9,1.2,5.8,5.8,0,0,1-1.9.3,3.5,3.5,0,0,1-2.6-.8,2.9,2.9,0,0,1-.9-2.1,3.2,3.2,0,0,1,.3-1.4,2.2,2.2,0,0,1,.9-1,3.1,3.1,0,0,1,1.3-.6l1.5-.3a10,10,0,0,0,3.2-.6v-.4a2.2,2.2,0,0,0-.5-1.6,3.6,3.6,0,0,0-3.8-.1,2.7,2.7,0,0,0-.9,1.5l-1.7-.2a4.8,4.8,0,0,1,.7-1.8,3.7,3.7,0,0,1,1.6-1,5.9,5.9,0,0,1,2.3-.4,6.5,6.5,0,0,1,2.2.3,2.7,2.7,0,0,1,1.8,2c0,.3.1.8.1,1.6v2.4a22,22,0,0,0,.1,3.1,2.8,2.8,0,0,0,.4,1.2h-1.8A5,5,0,0,1,247.9,55.2Zm-.1-3.9a12.3,12.3,0,0,1-2.9.7l-1.5.3a1.1,1.1,0,0,0-.7.6,1.1,1.1,0,0,0-.3.8,1.4,1.4,0,0,0,.6,1.2,2.1,2.1,0,0,0,1.5.5,3.5,3.5,0,0,0,1.8-.5,2.3,2.3,0,0,0,1.2-1.2,4.2,4.2,0,0,0,.3-1.8Z" fill="#005eaa"></path>
      <path d="M256.5,54.9l.3,1.6h-1.4a2.6,2.6,0,0,1-1.4-.3,1.6,1.6,0,0,1-.8-.8,7.5,7.5,0,0,1-.2-2v-6h-1.3V46.1H253V43.6l1.8-1.1v3.6h1.7v1.4h-1.7v7a.8.8,0,0,0,.4.4h1.3Z" fill="#005eaa"></path>
      <path d="M265.4,55.2a5,5,0,0,1-1.9,1.2,5.8,5.8,0,0,1-1.9.3,3.5,3.5,0,0,1-2.6-.8,3,3,0,0,1-1-2.1,3.3,3.3,0,0,1,.4-1.4,2.2,2.2,0,0,1,.9-1,3.1,3.1,0,0,1,1.3-.6l1.5-.3a10.7,10.7,0,0,0,3.2-.6v-.4a2.2,2.2,0,0,0-.5-1.6,3,3,0,0,0-2-.6,3.1,3.1,0,0,0-1.9.5,2.7,2.7,0,0,0-.8,1.5l-1.8-.2a7.5,7.5,0,0,1,.8-1.8,3.7,3.7,0,0,1,1.6-1,5.3,5.3,0,0,1,2.3-.4,6.9,6.9,0,0,1,2.2.3,3.6,3.6,0,0,1,1.2.8,3.4,3.4,0,0,1,.6,1.2v4a17.6,17.6,0,0,0,.2,3.1,2.8,2.8,0,0,0,.4,1.2h-1.8A5,5,0,0,1,265.4,55.2Zm-.1-3.9a12.3,12.3,0,0,1-2.9.7l-1.5.3a1.1,1.1,0,0,0-.7.6,1.1,1.1,0,0,0-.3.8,1.4,1.4,0,0,0,.6,1.2,2.1,2.1,0,0,0,1.5.5,3.5,3.5,0,0,0,3-1.7,4.2,4.2,0,0,0,.3-1.8Z" fill="#005eaa"></path>
      <path d="M286.6,51.5l1.9.5a6.6,6.6,0,0,1-2.2,3.5,6,6,0,0,1-3.8,1.2,6.8,6.8,0,0,1-3.7-.9,5.4,5.4,0,0,1-2.2-2.7,10.1,10.1,0,0,1-.8-3.9,8,8,0,0,1,.9-3.9,5.3,5.3,0,0,1,2.4-2.5,6.8,6.8,0,0,1,3.5-.9,6.1,6.1,0,0,1,3.6,1.1,6.7,6.7,0,0,1,2,3.1l-1.9.4a4,4,0,0,0-1.4-2.2,3.6,3.6,0,0,0-2.4-.7,4,4,0,0,0-2.7.8,3.7,3.7,0,0,0-1.6,2.1,8.4,8.4,0,0,0-.4,2.7,8,8,0,0,0,.5,3.2,3.6,3.6,0,0,0,1.6,2,4.5,4.5,0,0,0,2.5.7,4.4,4.4,0,0,0,2.7-.9A5.1,5.1,0,0,0,286.6,51.5Z" fill="#005eaa"></path>
      <path d="M297.8,56.5V55a3.9,3.9,0,0,1-3.3,1.7,4.7,4.7,0,0,1-1.7-.3c-.6-.3-1-.5-1.2-.9a3.1,3.1,0,0,1-.6-1.3c0-.3-.1-.9-.1-1.6V46.1h1.8v5.8a7.7,7.7,0,0,0,.1,1.8,1.4,1.4,0,0,0,.7,1.1,2,2,0,0,0,1.3.4,2.8,2.8,0,0,0,1.5-.4,2.1,2.1,0,0,0,1-1.1,5.3,5.3,0,0,0,.3-2V46.1h1.7V56.5Z" fill="#005eaa"></path>
      <path d="M302.4,56.5V42.2h1.8V56.5Z" fill="#005eaa"></path>
      <path d="M311.2,54.9l.2,1.6h-1.3a3.3,3.3,0,0,1-1.5-.3,1.4,1.4,0,0,1-.7-.8,4.8,4.8,0,0,1-.2-2v-6h-1.3V46.1h1.3V43.6l1.7-1.1v3.6h1.8v1.4h-1.8v6.1c0,.5,0,.8.1.9l.3.4h1.4Z" fill="#005eaa"></path>
      <path d="M320.1,56.5V55a3.9,3.9,0,0,1-3.3,1.7,4.7,4.7,0,0,1-1.7-.3,2.9,2.9,0,0,1-1.2-.9,2.9,2.9,0,0,1-.5-1.3,5.7,5.7,0,0,1-.2-1.6V46.1H315v5.8a7.7,7.7,0,0,0,.1,1.8,1.8,1.8,0,0,0,.7,1.1,2,2,0,0,0,1.3.4,2.4,2.4,0,0,0,1.5-.4,2.1,2.1,0,0,0,1-1.1,5.3,5.3,0,0,0,.3-2V46.1h1.8V56.5Z" fill="#005eaa"></path>
      <path d="M324.8,56.5V46.1h1.6v1.6a4.8,4.8,0,0,1,1.1-1.5,2,2,0,0,1,1.1-.3,3.2,3.2,0,0,1,1.8.6l-.6,1.6a2,2,0,0,0-1.3-.4,1.3,1.3,0,0,0-1,.4,2.2,2.2,0,0,0-.7.9,6.6,6.6,0,0,0-.3,2.1v5.4Z" fill="#005eaa"></path>
      <path d="M339,53.2l1.8.2a4.7,4.7,0,0,1-1.6,2.5,5.6,5.6,0,0,1-3,.8,4.5,4.5,0,0,1-3.6-1.4,5.3,5.3,0,0,1-1.3-3.9,5.9,5.9,0,0,1,1.3-4.1,4.8,4.8,0,0,1,3.5-1.4,4.6,4.6,0,0,1,3.4,1.4,5.7,5.7,0,0,1,1.3,4v.5h-7.7a4.1,4.1,0,0,0,1,2.6,2.7,2.7,0,0,0,2.1.9,3.1,3.1,0,0,0,1.7-.5A5,5,0,0,0,339,53.2Zm-5.8-2.9H339a3,3,0,0,0-.7-1.9,2.7,2.7,0,0,0-4.2-.2A3.4,3.4,0,0,0,333.2,50.3Z" fill="#005eaa"></path>
      <path d="M356.1,55.2a5,5,0,0,1-1.9,1.2,5.8,5.8,0,0,1-1.9.3,3.5,3.5,0,0,1-2.6-.8,2.9,2.9,0,0,1-.9-2.1,3.2,3.2,0,0,1,.3-1.4,2.2,2.2,0,0,1,.9-1,3.1,3.1,0,0,1,1.3-.6l1.5-.3a10,10,0,0,0,3.2-.6v-.4a2.2,2.2,0,0,0-.5-1.6,3,3,0,0,0-2-.6,2.4,2.4,0,0,0-2.7,2l-1.7-.2a4.8,4.8,0,0,1,.7-1.8,3.7,3.7,0,0,1,1.6-1,5.6,5.6,0,0,1,2.3-.4,6.9,6.9,0,0,1,2.2.3,2.8,2.8,0,0,1,1.2.8,2.3,2.3,0,0,1,.6,1.2v4a17.6,17.6,0,0,0,.2,3.1,2.8,2.8,0,0,0,.4,1.2h-1.8A5,5,0,0,1,356.1,55.2Zm-.1-3.9a12.3,12.3,0,0,1-2.9.7l-1.5.3a1.1,1.1,0,0,0-.7.6,1.1,1.1,0,0,0-.3.8,1.4,1.4,0,0,0,.6,1.2,2.1,2.1,0,0,0,1.5.5,3.5,3.5,0,0,0,1.8-.5,2.8,2.8,0,0,0,1.2-1.2,4.2,4.2,0,0,0,.3-1.8Z" fill="#005eaa"></path>
      <path d="M360.9,56.5V46.1h1.6v1.5a3.7,3.7,0,0,1,3.3-1.7,4.7,4.7,0,0,1,1.7.3l1.2.9a5,5,0,0,1,.5,1.3,7.2,7.2,0,0,1,.1,1.7v6.4h-1.8V50.2a3.4,3.4,0,0,0-.2-1.6,1.3,1.3,0,0,0-.7-.9,2.1,2.1,0,0,0-1.2-.3,3.5,3.5,0,0,0-2,.7,3.8,3.8,0,0,0-.8,2.7v5.7Z" fill="#005eaa"></path>
      <path d="M379.1,56.5V55.2a3.2,3.2,0,0,1-2.9,1.5,4.6,4.6,0,0,1-2.3-.6,5.4,5.4,0,0,1-1.6-2,7.8,7.8,0,0,1-.5-2.8,6.4,6.4,0,0,1,.5-2.8,3.6,3.6,0,0,1,1.5-1.9,3.9,3.9,0,0,1,2.3-.7,3.1,3.1,0,0,1,1.7.4,4,4,0,0,1,1.2,1V42.2h1.8V56.5Zm-5.5-5.2a4.3,4.3,0,0,0,.8,3,2.5,2.5,0,0,0,2,1,2.2,2.2,0,0,0,1.9-1,3.8,3.8,0,0,0,.9-2.8,4.9,4.9,0,0,0-.9-3.2,2.6,2.6,0,0,0-2-1,2.4,2.4,0,0,0-1.9,1A4.3,4.3,0,0,0,373.6,51.3Z" fill="#005eaa"></path>
      <path d="M400.3,51.5l1.9.5a6.5,6.5,0,0,1-2.1,3.5,6.2,6.2,0,0,1-3.8,1.2,7.1,7.1,0,0,1-3.8-.9,6,6,0,0,1-2.2-2.7,10,10,0,0,1-.7-3.9,8,8,0,0,1,.8-3.9,6.4,6.4,0,0,1,2.4-2.5,7,7,0,0,1,3.5-.9,5.6,5.6,0,0,1,5.7,4.2l-1.9.4a3.6,3.6,0,0,0-3.8-2.9,4.4,4.4,0,0,0-2.8.8,4.1,4.1,0,0,0-1.5,2.1,8.6,8.6,0,0,0-.5,2.7,10.2,10.2,0,0,0,.5,3.2,3.8,3.8,0,0,0,1.7,2,4.2,4.2,0,0,0,2.4.7,4.1,4.1,0,0,0,4.2-3.6Z" fill="#005eaa"></path>
      <path d="M404.1,51.3a5.4,5.4,0,0,1,1.6-4.3,5,5,0,0,1,3.2-1.1,4.7,4.7,0,0,1,3.5,1.4,5.3,5.3,0,0,1,1.4,3.9,6.6,6.6,0,0,1-.6,3.1,3.9,3.9,0,0,1-1.8,1.8,5.1,5.1,0,0,1-2.5.6,4.5,4.5,0,0,1-3.5-1.4A5.4,5.4,0,0,1,404.1,51.3Zm1.8,0a5.1,5.1,0,0,0,.8,3,2.9,2.9,0,0,0,4.4,0,4.5,4.5,0,0,0,.9-3,4.5,4.5,0,0,0-.9-3,2.9,2.9,0,0,0-4.4,0A5.1,5.1,0,0,0,405.9,51.3Z" fill="#005eaa"></path>
      <path d="M416.2,56.5V46.1h1.6v1.5a3.7,3.7,0,0,1,1.3-1.2,3.7,3.7,0,0,1,3.7,0,2.4,2.4,0,0,1,1.1,1.3,3.7,3.7,0,0,1,3.2-1.8,3.6,3.6,0,0,1,2.4.8,4.1,4.1,0,0,1,.8,2.7v7.1h-1.8V50a7.1,7.1,0,0,0-.1-1.6,1.3,1.3,0,0,0-.6-.7,2,2,0,0,0-1.1-.3,2.9,2.9,0,0,0-1.8.7,3.3,3.3,0,0,0-.7,2.4v6h-1.8V49.8A3,3,0,0,0,422,48a1.7,1.7,0,0,0-1.4-.6,2.3,2.3,0,0,0-1.4.4,2.7,2.7,0,0,0-.9,1.2,5.8,5.8,0,0,0-.3,2.1v5.4Z" fill="#005eaa"></path>
      <path d="M433.3,56.5V46.1h1.6v1.5a3,3,0,0,1,1.3-1.2,2.7,2.7,0,0,1,1.8-.5,3.6,3.6,0,0,1,1.9.5,2.2,2.2,0,0,1,1,1.3,3.9,3.9,0,0,1,3.3-1.8,3.2,3.2,0,0,1,2.3.8,3.7,3.7,0,0,1,.9,2.7v7.1h-1.8V50a3.7,3.7,0,0,0-.2-1.6,1.3,1.3,0,0,0-.6-.7,1.7,1.7,0,0,0-1-.3,2.9,2.9,0,0,0-1.9.7,3.8,3.8,0,0,0-.7,2.4v6h-1.7V49.8A3,3,0,0,0,439,48a1.6,1.6,0,0,0-1.4-.6,2,2,0,0,0-1.3.4,2.3,2.3,0,0,0-1,1.2,10.6,10.6,0,0,0-.2,2.1v5.4Z" fill="#005eaa"></path>
      <path d="M457.2,56.5V55a3.9,3.9,0,0,1-3.3,1.7,4.7,4.7,0,0,1-1.7-.3c-.6-.3-1-.5-1.2-.9a3.1,3.1,0,0,1-.6-1.3c0-.3-.1-.9-.1-1.6V46.1h1.8v5.8a7.7,7.7,0,0,0,.1,1.8,1.4,1.4,0,0,0,.7,1.1,2,2,0,0,0,1.3.4,2.8,2.8,0,0,0,1.5-.4,2.1,2.1,0,0,0,1-1.1,5.3,5.3,0,0,0,.3-2V46.1h1.7V56.5Z" fill="#005eaa"></path>
      <path d="M461.9,56.5V46.1h1.6v1.5a3.7,3.7,0,0,1,3.3-1.7,4.7,4.7,0,0,1,1.7.3l1.2.9a5,5,0,0,1,.5,1.3,7.2,7.2,0,0,1,.1,1.7v6.4h-1.7V50.2a5.7,5.7,0,0,0-.2-1.6,1.8,1.8,0,0,0-.8-.9,2.1,2.1,0,0,0-1.2-.3,2.9,2.9,0,0,0-1.9.7,3.4,3.4,0,0,0-.9,2.7v5.7Z" fill="#005eaa"></path>
      <path d="M473.4,44.2v-2h1.8v2Zm0,12.3V46.1h1.8V56.5Z" fill="#005eaa"></path>
      <path d="M482.1,54.9l.2,1.6H481a3.3,3.3,0,0,1-1.5-.3,1.4,1.4,0,0,1-.7-.8,4.8,4.8,0,0,1-.2-2v-6h-1.3V46.1h1.3V43.6l1.7-1.1v3.6h1.8v1.4h-1.8v6.1a5.5,5.5,0,0,0,.1.9l.3.4h1.4Z" fill="#005eaa"></path>
      <path d="M484.1,60.5l-.2-1.7,1,.2,1-.2.6-.5c.1-.2.2-.7.5-1.4a1,1,0,0,0,.1-.4l-3.9-10.4h1.9l2.2,6c.2.8.5,1.6.7,2.4.2-.8.5-1.6.7-2.3l2.3-6.1h1.7l-3.9,10.6-1,2.3a3.6,3.6,0,0,1-1.1,1.3,2.3,2.3,0,0,1-1.4.4Z" fill="#005eaa"></path>
      <path d="M501.1,56.5V42.2H503V56.5Z" fill="#005eaa"></path>
      <path d="M506.5,56.5V46.1h1.6v1.5a3.9,3.9,0,0,1,3.3-1.7,4.7,4.7,0,0,1,1.7.3,4.1,4.1,0,0,1,1.2.9,5.2,5.2,0,0,1,.6,1.3v8.1h-1.7V50.2a5.7,5.7,0,0,0-.2-1.6,1.6,1.6,0,0,0-.7-.9,2.8,2.8,0,0,0-1.3-.3,3.2,3.2,0,0,0-1.9.7,3.8,3.8,0,0,0-.8,2.7v5.7Z" fill="#005eaa"></path>
      <path d="M521.9,54.9l.2,1.6h-1.3a3.3,3.3,0,0,1-1.5-.3,1.4,1.4,0,0,1-.7-.8,4.8,4.8,0,0,1-.2-2v-6h-1.3V46.1h1.3V43.6l1.7-1.1v3.6h1.8v1.4h-1.8v6.1c0,.5,0,.8.1.9l.3.4h1.4Z" fill="#005eaa"></path>
      <path d="M531.1,53.2l1.8.2a4.7,4.7,0,0,1-1.6,2.5,5,5,0,0,1-2.9.8,4.6,4.6,0,0,1-3.7-1.4,5.7,5.7,0,0,1-1.3-3.9,6,6,0,0,1,1.4-4.1,4.7,4.7,0,0,1,3.5-1.4,4.8,4.8,0,0,1,3.4,1.4,6.2,6.2,0,0,1,1.3,4v.5h-7.8a4.1,4.1,0,0,0,1,2.6,2.9,2.9,0,0,0,2.2.9,2.8,2.8,0,0,0,1.6-.5A3.8,3.8,0,0,0,531.1,53.2Zm-5.8-2.9h5.8a3.8,3.8,0,0,0-.6-1.9,2.8,2.8,0,0,0-2.2-1.1,2.9,2.9,0,0,0-2.1.9A3.4,3.4,0,0,0,525.3,50.3Z" fill="#005eaa"></path>
      <path d="M535.2,57.4l1.7.2a2.3,2.3,0,0,0,.6,1.2,3,3,0,0,0,1.8.5,3.6,3.6,0,0,0,1.9-.5,3.4,3.4,0,0,0,.9-1.4,12.3,12.3,0,0,0,.1-2.3,3.7,3.7,0,0,1-2.9,1.4A4,4,0,0,1,536,55a6,6,0,0,1-1.1-3.7,6.6,6.6,0,0,1,.5-2.8,4.1,4.1,0,0,1,1.5-1.9,4,4,0,0,1,2.4-.7,3.7,3.7,0,0,1,3.1,1.5V46.1H544v9a8.6,8.6,0,0,1-.5,3.4,3.5,3.5,0,0,1-1.6,1.6,5.3,5.3,0,0,1-2.6.6,5.6,5.6,0,0,1-3-.8A2.8,2.8,0,0,1,535.2,57.4Zm1.5-6.3a4.2,4.2,0,0,0,.8,3,2.7,2.7,0,0,0,4,0,4,4,0,0,0,.9-2.9,4.2,4.2,0,0,0-.9-2.9,2.8,2.8,0,0,0-2-1,2.6,2.6,0,0,0-2,1A3.9,3.9,0,0,0,536.7,51.1Z" fill="#005eaa"></path>
      <path d="M547,56.5V46.1h1.6v1.6a7.3,7.3,0,0,1,1.1-1.5,2.4,2.4,0,0,1,1.2-.3,3.5,3.5,0,0,1,1.8.6l-.6,1.6a2.4,2.4,0,0,0-1.3-.4,1.5,1.5,0,0,0-1.1.4,1.5,1.5,0,0,0-.6.9,6.6,6.6,0,0,0-.3,2.1v5.4Z" fill="#005eaa"></path>
      <path d="M560.9,55.2a5.9,5.9,0,0,1-1.9,1.2,6.3,6.3,0,0,1-1.9.3,3.6,3.6,0,0,1-2.7-.8,2.9,2.9,0,0,1-.9-2.1,2.3,2.3,0,0,1,.4-1.4,2.2,2.2,0,0,1,.9-1,2.7,2.7,0,0,1,1.2-.6l1.6-.3a9.3,9.3,0,0,0,3.1-.6v-.4c0-.8-.1-1.3-.5-1.6a2.8,2.8,0,0,0-2-.6,3,3,0,0,0-1.8.5,2.7,2.7,0,0,0-.9,1.5l-1.7-.2a4.9,4.9,0,0,1,.8-1.8,3.3,3.3,0,0,1,1.5-1,6.1,6.1,0,0,1,2.4-.4,6.9,6.9,0,0,1,2.2.3,3.6,3.6,0,0,1,1.2.8,3.3,3.3,0,0,1,.5,1.2,6.2,6.2,0,0,1,.1,1.6v2.4a22,22,0,0,0,.1,3.1,3.1,3.1,0,0,0,.5,1.2h-1.9A2.8,2.8,0,0,1,560.9,55.2Zm-.2-3.9a11.3,11.3,0,0,1-2.8.7l-1.6.3a1.3,1.3,0,0,0-.7.6,1.9,1.9,0,0,0-.2.8,1.7,1.7,0,0,0,.5,1.2,2.5,2.5,0,0,0,1.6.5,3.5,3.5,0,0,0,1.8-.5,2.5,2.5,0,0,0,1.1-1.2,4.2,4.2,0,0,0,.3-1.8Z" fill="#005eaa"></path>
      <path d="M569.5,54.9l.2,1.6h-1.3a3.3,3.3,0,0,1-1.5-.3,1.4,1.4,0,0,1-.7-.8,4.8,4.8,0,0,1-.2-2v-6h-1.3V46.1H566V43.6l1.7-1.1v3.6h1.8v1.4h-1.8v6.1c0,.5,0,.8.1.9l.3.4h1.4Z" fill="#005eaa"></path>
      <path d="M571.6,44.2v-2h1.8v2Zm0,12.3V46.1h1.8V56.5Z" fill="#005eaa"></path>
      <path d="M575.8,51.3a5.4,5.4,0,0,1,1.6-4.3,5.2,5.2,0,0,1,3.2-1.1,4.7,4.7,0,0,1,3.5,1.4,5.3,5.3,0,0,1,1.4,3.9,6.6,6.6,0,0,1-.6,3.1,3.9,3.9,0,0,1-1.8,1.8,5.1,5.1,0,0,1-2.5.6,4.5,4.5,0,0,1-3.5-1.4A5.4,5.4,0,0,1,575.8,51.3Zm1.8,0a4.5,4.5,0,0,0,.9,3,2.5,2.5,0,0,0,2.1,1,2.7,2.7,0,0,0,2.2-1,4.5,4.5,0,0,0,.9-3,4.5,4.5,0,0,0-.9-3,3,3,0,0,0-2.2-1,2.8,2.8,0,0,0-2.1,1A4.5,4.5,0,0,0,577.6,51.3Z" fill="#005eaa"></path>
      <path d="M588,56.5V46.1h1.5v1.5a3.9,3.9,0,0,1,3.3-1.7,5.2,5.2,0,0,1,1.8.3,3.5,3.5,0,0,1,1.1.9,3.1,3.1,0,0,1,.6,1.3c0,.3.1.9.1,1.7v6.4h-1.8V50.2a3.4,3.4,0,0,0-.2-1.6,1.6,1.6,0,0,0-.7-.9l-1.2-.3a3.5,3.5,0,0,0-2,.7,3.8,3.8,0,0,0-.8,2.7v5.7Z" fill="#005eaa"></path>
    </g>
    <g>
      <path d="M227.6,125V99.9h5l5.9,17.8a36.7,36.7,0,0,1,1.2,3.7c.3-.9.7-2.3,1.3-4l6-17.5h4.5V125h-3.2V104L241,125h-3l-7.2-21.3V125Z" fill="#fff"></path>
      <path d="M269,122.8a11.7,11.7,0,0,1-3.3,2,9.3,9.3,0,0,1-3.4.6,6.5,6.5,0,0,1-4.6-1.5,4.9,4.9,0,0,1-1.6-3.7,4.8,4.8,0,0,1,.6-2.4,5.6,5.6,0,0,1,1.6-1.8,8.8,8.8,0,0,1,2.2-1l2.8-.5a29.2,29.2,0,0,0,5.4-1,3.2,3.2,0,0,0,.1-.8,3.4,3.4,0,0,0-.9-2.7,5.2,5.2,0,0,0-3.5-1,5.4,5.4,0,0,0-3.2.7,5.1,5.1,0,0,0-1.5,2.7l-3-.4a6.8,6.8,0,0,1,1.3-3.1,5.4,5.4,0,0,1,2.7-1.8,13,13,0,0,1,4.1-.7,10.1,10.1,0,0,1,3.8.6,4.3,4.3,0,0,1,2.1,1.4,4.1,4.1,0,0,1,1,2.1,15.2,15.2,0,0,1,.2,2.8v4.1a31.5,31.5,0,0,0,.2,5.4,5.7,5.7,0,0,0,.7,2.2h-3.2A7.1,7.1,0,0,1,269,122.8Zm-.3-6.9a30.6,30.6,0,0,1-5,1.2,7.7,7.7,0,0,0-2.7.6,2.3,2.3,0,0,0-1.2,1,2.3,2.3,0,0,0-.4,1.4,2.9,2.9,0,0,0,.9,2.1,4.7,4.7,0,0,0,2.8.8,6.5,6.5,0,0,0,3.1-.8,5.3,5.3,0,0,0,2.1-2.1,8.3,8.3,0,0,0,.4-3.1Z" fill="#fff"></path>
      <path d="M277.8,125V99.9h11.1a16.4,16.4,0,0,1,5.1.7,6.5,6.5,0,0,1,2.8,2.4,7,7,0,0,1,1,3.8,6.4,6.4,0,0,1-1.7,4.5,9,9,0,0,1-5.4,2.3,7,7,0,0,1,2,1.2,16.4,16.4,0,0,1,2.8,3.4l4.4,6.8h-4.2l-3.3-5.2-2.4-3.5a7.8,7.8,0,0,0-1.7-1.6,3.4,3.4,0,0,0-1.5-.7h-5.7V125Zm3.3-14h7.1a11.5,11.5,0,0,0,3.6-.5,4,4,0,0,0,2.6-3.7,3.5,3.5,0,0,0-1.3-2.9,5.9,5.9,0,0,0-4.1-1.2h-7.9Z" fill="#fff"></path>
      <path d="M303.7,125V99.9h8.6a23.1,23.1,0,0,1,4.5.4,8.5,8.5,0,0,1,3.7,1.8,9.4,9.4,0,0,1,2.9,4.3,15.5,15.5,0,0,1,1,5.9,16.1,16.1,0,0,1-.7,5.1A10.1,10.1,0,0,1,322,121a8.1,8.1,0,0,1-2.2,2.3,10.1,10.1,0,0,1-3,1.3,16.8,16.8,0,0,1-4.1.4Zm3.3-3h5.4a12.9,12.9,0,0,0,3.8-.4,6.3,6.3,0,0,0,2.3-1.3,7.7,7.7,0,0,0,1.8-3.2,13.5,13.5,0,0,0,.7-4.8,11.8,11.8,0,0,0-1.3-6.1,6.8,6.8,0,0,0-3.1-2.8,14.8,14.8,0,0,0-4.3-.5H307Z" fill="#fff"></path>
      <path d="M330.2,125V99.9h3.4V125Z" fill="#fff"></path>
      <path d="M350.5,125V99.9H360a18.7,18.7,0,0,1,3.8.3,7.7,7.7,0,0,1,3.1,1.2,5.4,5.4,0,0,1,2,2.4,7.7,7.7,0,0,1,.7,3.4,7.6,7.6,0,0,1-2,5.4c-1.3,1.5-3.8,2.2-7.3,2.2h-6.5V125Zm3.3-13.1h6.5c2.2,0,3.7-.4,4.6-1.2a4.4,4.4,0,0,0,1.3-3.4,4,4,0,0,0-.8-2.7,4.1,4.1,0,0,0-2.1-1.5l-3.1-.2h-6.4Z" fill="#fff"></path>
      <path d="M373,115.9c0-3.3,1-5.8,2.8-7.4a8.4,8.4,0,0,1,5.7-2.1,8.5,8.5,0,0,1,6.2,2.5,9.6,9.6,0,0,1,2.3,6.8,12.3,12.3,0,0,1-1,5.5,7.1,7.1,0,0,1-3.1,3.1,9.3,9.3,0,0,1-4.4,1.1,8.1,8.1,0,0,1-6.1-2.4C373.8,121.3,373,119,373,115.9Zm3.2,0c0,2.4.5,4.1,1.5,5.2a4.8,4.8,0,0,0,3.8,1.8,5,5,0,0,0,3.9-1.8c1-1.1,1.5-2.9,1.5-5.3a7.3,7.3,0,0,0-1.6-5.1,4.9,4.9,0,0,0-3.8-1.7,5,5,0,0,0-3.8,1.7A7.9,7.9,0,0,0,376.2,115.9Z" fill="#fff"></path>
      <path d="M394.3,125V106.9h2.8v2.7a6.9,6.9,0,0,1,1.9-2.5,3.1,3.1,0,0,1,2-.7,7,7,0,0,1,3.2,1l-1.1,2.9a3.9,3.9,0,0,0-2.3-.7,3.2,3.2,0,0,0-1.8.6,3.4,3.4,0,0,0-1.1,1.7,13.6,13.6,0,0,0-.5,3.6V125Z" fill="#fff"></path>
      <path d="M413.4,122.2l.5,2.8-2.4.2a4.8,4.8,0,0,1-2.6-.5,2.9,2.9,0,0,1-1.3-1.4,13.7,13.7,0,0,1-.3-3.6V109.2H405v-2.3h2.3v-4.5l3-1.9v6.4h3.1v2.3h-3.1v10.7a4.7,4.7,0,0,0,.2,1.6,1,1,0,0,0,.5.6,1.8,1.8,0,0,0,1.1.3Z" fill="#fff"></path>
      <path d="M429,122.8a15.3,15.3,0,0,1-3.3,2,9.7,9.7,0,0,1-3.4.6,6.5,6.5,0,0,1-4.6-1.5,4.6,4.6,0,0,1-1.6-3.7,4.8,4.8,0,0,1,.6-2.4,4.6,4.6,0,0,1,1.6-1.8,7.4,7.4,0,0,1,2.2-1l2.7-.5a30.6,30.6,0,0,0,5.5-1v-.8a3.4,3.4,0,0,0-.9-2.7,4.9,4.9,0,0,0-3.5-1,5.6,5.6,0,0,0-3.2.7,5.8,5.8,0,0,0-1.5,2.7l-3-.4a6.8,6.8,0,0,1,1.4-3.1,5.4,5.4,0,0,1,2.7-1.8,12.5,12.5,0,0,1,4.1-.7,10.4,10.4,0,0,1,3.8.6,5.5,5.5,0,0,1,2.1,1.4,4.1,4.1,0,0,1,1,2.1,18.7,18.7,0,0,1,.1,2.8v4.1a48.7,48.7,0,0,0,.2,5.4,5.8,5.8,0,0,0,.8,2.2h-3.2A7.1,7.1,0,0,1,429,122.8Zm-.3-6.9a33.5,33.5,0,0,1-5,1.2,6.7,6.7,0,0,0-2.7.6,2.3,2.3,0,0,0-1.2,1,2.3,2.3,0,0,0-.4,1.4,2.9,2.9,0,0,0,.9,2.1,4.1,4.1,0,0,0,2.7.8,6.6,6.6,0,0,0,3.2-.8,4.5,4.5,0,0,0,2-2.1,8,8,0,0,0,.5-3.1Z" fill="#fff"></path>
      <path d="M437.2,125V99.9h3.1V125Z" fill="#fff"></path>
    </g>
    <g>
      <path d="M236.8,157.5l1.9.5a6.6,6.6,0,0,1-2.2,3.5,6,6,0,0,1-3.8,1.2,6.8,6.8,0,0,1-3.7-.9,5.4,5.4,0,0,1-2.2-2.7,8.5,8.5,0,0,1-.8-3.9,8,8,0,0,1,.9-3.9,5.3,5.3,0,0,1,2.4-2.5,6.8,6.8,0,0,1,3.5-.9,6.1,6.1,0,0,1,3.6,1.1,6.7,6.7,0,0,1,2,3.1l-1.9.4a4,4,0,0,0-1.4-2.2,3.6,3.6,0,0,0-2.4-.7,4,4,0,0,0-2.7.8,3.7,3.7,0,0,0-1.6,2.1,8.6,8.6,0,0,0-.5,2.7,7.9,7.9,0,0,0,.6,3.2,3.6,3.6,0,0,0,1.6,2,4.5,4.5,0,0,0,2.5.7,4.4,4.4,0,0,0,2.7-.9A5.1,5.1,0,0,0,236.8,157.5Z" fill="#fff"></path>
      <path d="M241.5,162.5V152.1h1.6v1.6a7.3,7.3,0,0,1,1.1-1.5l1.2-.3a3.2,3.2,0,0,1,1.8.6l-.6,1.6a2.4,2.4,0,0,0-1.3-.4,1.7,1.7,0,0,0-1.1.4,1.5,1.5,0,0,0-.6.9,6.6,6.6,0,0,0-.3,2.1v5.4Z" fill="#fff"></path>
      <path d="M256.1,159.2l1.8.2a4.2,4.2,0,0,1-1.6,2.5,5,5,0,0,1-2.9.8,4.5,4.5,0,0,1-3.6-1.4,5.3,5.3,0,0,1-1.4-3.9,6,6,0,0,1,1.4-4.1,4.7,4.7,0,0,1,3.5-1.4,4.6,4.6,0,0,1,3.4,1.4,5.7,5.7,0,0,1,1.3,4v.5h-7.7a3.6,3.6,0,0,0,.9,2.6,2.9,2.9,0,0,0,2.2.9,2.8,2.8,0,0,0,1.6-.5A3.1,3.1,0,0,0,256.1,159.2Zm-5.8-2.9h5.8a3.1,3.1,0,0,0-.6-1.9,2.8,2.8,0,0,0-2.2-1.1,2.5,2.5,0,0,0-2,.9A3,3,0,0,0,250.3,156.3Z" fill="#fff"></path>
      <path d="M267.7,161.2a5,5,0,0,1-1.9,1.2,5.8,5.8,0,0,1-1.9.3,3.5,3.5,0,0,1-2.6-.8,3,3,0,0,1-1-2.1,3.3,3.3,0,0,1,.4-1.4,2.2,2.2,0,0,1,.9-1,3.1,3.1,0,0,1,1.3-.6l1.5-.3a10,10,0,0,0,3.2-.6v-.4a2.2,2.2,0,0,0-.5-1.6,3,3,0,0,0-2-.6,3.1,3.1,0,0,0-1.9.5,3.5,3.5,0,0,0-.8,1.5l-1.7-.2a4.8,4.8,0,0,1,.7-1.8,3.7,3.7,0,0,1,1.6-1,5.6,5.6,0,0,1,2.3-.4,6.9,6.9,0,0,1,2.2.3,3.6,3.6,0,0,1,1.2.8,2.3,2.3,0,0,1,.6,1.2v4a17.6,17.6,0,0,0,.2,3.1,2.8,2.8,0,0,0,.4,1.2h-1.8A5,5,0,0,1,267.7,161.2Zm-.1-3.9a12.3,12.3,0,0,1-2.9.7l-1.5.3a1.1,1.1,0,0,0-.7.6,1.1,1.1,0,0,0-.3.8,1.4,1.4,0,0,0,.6,1.2,2.1,2.1,0,0,0,1.5.5,3.5,3.5,0,0,0,3-1.7,4.2,4.2,0,0,0,.3-1.8Z" fill="#fff"></path>
      <path d="M276.7,160.9l.3,1.6h-1.4a3.3,3.3,0,0,1-1.5-.3,1.4,1.4,0,0,1-.7-.8,7.5,7.5,0,0,1-.2-2v-6h-1.3v-1.4h1.3v-2.5l1.7-1.1v3.6h1.8v1.4h-1.8v6.1a5.5,5.5,0,0,0,.1.9l.3.4h1.4Z" fill="#fff"></path>
      <path d="M286.3,159.2l1.8.2a4.2,4.2,0,0,1-1.6,2.5,5,5,0,0,1-2.9.8,4.5,4.5,0,0,1-3.6-1.4,5.3,5.3,0,0,1-1.4-3.9,6,6,0,0,1,1.4-4.1,4.7,4.7,0,0,1,3.5-1.4,4.6,4.6,0,0,1,3.4,1.4,5.7,5.7,0,0,1,1.3,4v.5h-7.7a3.6,3.6,0,0,0,.9,2.6,2.9,2.9,0,0,0,2.2.9,2.8,2.8,0,0,0,1.6-.5A3.1,3.1,0,0,0,286.3,159.2Zm-5.7-2.9h5.7a3.1,3.1,0,0,0-.6-1.9,2.8,2.8,0,0,0-2.2-1.1,2.5,2.5,0,0,0-2,.9A2.6,2.6,0,0,0,280.6,156.3Z" fill="#fff"></path>
      <path d="M304.3,161.2a5.9,5.9,0,0,1-1.9,1.2,6.3,6.3,0,0,1-1.9.3,3.6,3.6,0,0,1-2.7-.8,2.9,2.9,0,0,1-.9-2.1,2.3,2.3,0,0,1,.4-1.4,2.2,2.2,0,0,1,.9-1,2.7,2.7,0,0,1,1.2-.6l1.6-.3a9.3,9.3,0,0,0,3.1-.6v-.4c0-.8-.1-1.3-.5-1.6a2.8,2.8,0,0,0-2-.6,3,3,0,0,0-1.8.5,2.7,2.7,0,0,0-.9,1.5l-1.7-.2a4.9,4.9,0,0,1,.8-1.8,3.3,3.3,0,0,1,1.5-1,6.1,6.1,0,0,1,2.4-.4,5.8,5.8,0,0,1,2.1.3,3.2,3.2,0,0,1,1.3.8,3.3,3.3,0,0,1,.5,1.2,6.2,6.2,0,0,1,.1,1.6v2.4a22,22,0,0,0,.1,3.1,3.1,3.1,0,0,0,.5,1.2h-1.9A2.8,2.8,0,0,1,304.3,161.2Zm-.2-3.9a11.3,11.3,0,0,1-2.8.7l-1.6.3a1.3,1.3,0,0,0-.7.6,1.9,1.9,0,0,0-.2.8,1.7,1.7,0,0,0,.5,1.2,2.5,2.5,0,0,0,1.6.5,3.7,3.7,0,0,0,1.8-.5,2.5,2.5,0,0,0,1.1-1.2,4.2,4.2,0,0,0,.3-1.8Z" fill="#fff"></path>
      <path d="M309.4,162.5V152.1H311v1.5a3.9,3.9,0,0,1,3.3-1.7,4.7,4.7,0,0,1,1.7.3,4.1,4.1,0,0,1,1.2.9,3.1,3.1,0,0,1,.6,1.3c0,.3.1.9.1,1.7v6.4h-1.8v-6.3a5.7,5.7,0,0,0-.2-1.6,1.6,1.6,0,0,0-.7-.9,2.8,2.8,0,0,0-1.3-.3,3.2,3.2,0,0,0-1.9.7,3.8,3.8,0,0,0-.8,2.7v5.7Z" fill="#fff"></path>
      <path d="M328.1,162.5v-1.3a3.3,3.3,0,0,1-2.9,1.5,3.9,3.9,0,0,1-3.9-2.6,6.1,6.1,0,0,1-.6-2.8,8.2,8.2,0,0,1,.5-2.8,4.3,4.3,0,0,1,1.6-1.9,3.7,3.7,0,0,1,2.3-.7,3.3,3.3,0,0,1,1.7.4,4,4,0,0,1,1.2,1v-5.1h1.7v14.3Zm-5.6-5.2a4.3,4.3,0,0,0,.9,3,2.3,2.3,0,0,0,1.9,1,2.3,2.3,0,0,0,2-1,4.3,4.3,0,0,0,.8-2.8,5.6,5.6,0,0,0-.8-3.2,2.8,2.8,0,0,0-2-1,2.6,2.6,0,0,0-2,1A4.9,4.9,0,0,0,322.5,157.3Z" fill="#fff"></path>
      <path d="M339.6,166.5V152.1h1.6v1.4a3.7,3.7,0,0,1,1.3-1.2,3.3,3.3,0,0,1,1.7-.4,4,4,0,0,1,2.4.7,3.6,3.6,0,0,1,1.5,1.9,5.9,5.9,0,0,1,.5,2.7,8.4,8.4,0,0,1-.5,2.9,4.8,4.8,0,0,1-1.7,2,4.6,4.6,0,0,1-2.3.6,4.1,4.1,0,0,1-1.6-.3,5.2,5.2,0,0,1-1.1-1v5.1Zm1.6-9.1a4.6,4.6,0,0,0,.8,2.9,2.5,2.5,0,0,0,4,0,4.6,4.6,0,0,0,.8-3.1,4,4,0,0,0-.8-2.9,2.3,2.3,0,0,0-1.9-1,2.5,2.5,0,0,0-2,1A4.6,4.6,0,0,0,341.2,157.4Z" fill="#fff"></path>
      <path d="M351.5,162.5V152.1h1.6v1.6a7.3,7.3,0,0,1,1.1-1.5l1.2-.3a3.2,3.2,0,0,1,1.8.6l-.6,1.6a2.4,2.4,0,0,0-1.3-.4,1.5,1.5,0,0,0-1.1.4,1.5,1.5,0,0,0-.6.9,6.6,6.6,0,0,0-.3,2.1v5.4Z" fill="#fff"></path>
      <path d="M358.4,157.3A5.4,5.4,0,0,1,360,153a5,5,0,0,1,3.2-1.1,4.8,4.8,0,0,1,3.5,1.4,5.3,5.3,0,0,1,1.4,3.9,6.6,6.6,0,0,1-.6,3.1,3.9,3.9,0,0,1-1.8,1.8,5.1,5.1,0,0,1-2.5.6,4.5,4.5,0,0,1-3.5-1.4A5.4,5.4,0,0,1,358.4,157.3Zm1.8,0a5.1,5.1,0,0,0,.8,3,2.9,2.9,0,0,0,4.4,0,5.4,5.4,0,0,0,0-6,2.9,2.9,0,0,0-4.4,0A5.1,5.1,0,0,0,360.2,157.3Z" fill="#fff"></path>
      <path d="M373.8,162.5l-3.9-10.4h1.8l2.3,6.2.6,2.1c.2-.5.4-1.2.7-1.9l2.3-6.4h1.8l-3.9,10.4Z" fill="#fff"></path>
      <path d="M381.7,150.2v-2h1.8v2Zm0,12.3V152.1h1.8v10.4Z" fill="#fff"></path>
      <path d="M393.7,162.5v-1.3a3.2,3.2,0,0,1-2.9,1.5,3.9,3.9,0,0,1-3.9-2.6,6.1,6.1,0,0,1-.6-2.8,6.4,6.4,0,0,1,.6-2.8,3.6,3.6,0,0,1,1.5-1.9,3.9,3.9,0,0,1,2.3-.7,3.1,3.1,0,0,1,1.7.4,4,4,0,0,1,1.2,1v-5.1h1.7v14.3Zm-5.5-5.2a4.3,4.3,0,0,0,.8,3,2.5,2.5,0,0,0,2,1,2.3,2.3,0,0,0,1.9-1,3.8,3.8,0,0,0,.8-2.8,4.9,4.9,0,0,0-.8-3.2,2.6,2.6,0,0,0-2-1,2.8,2.8,0,0,0-2,1A4.9,4.9,0,0,0,388.2,157.3Z" fill="#fff"></path>
      <path d="M406,159.2l1.8.2a4.7,4.7,0,0,1-1.6,2.5,5,5,0,0,1-2.9.8,4.6,4.6,0,0,1-3.7-1.4,5.7,5.7,0,0,1-1.3-3.9,6,6,0,0,1,1.4-4.1,4.7,4.7,0,0,1,3.5-1.4,4.8,4.8,0,0,1,3.4,1.4,6.2,6.2,0,0,1,1.3,4v.5h-7.8a4.1,4.1,0,0,0,1,2.6,2.9,2.9,0,0,0,2.2.9,2.8,2.8,0,0,0,1.6-.5A3.8,3.8,0,0,0,406,159.2Zm-5.8-2.9H406a3.8,3.8,0,0,0-.6-1.9,2.8,2.8,0,0,0-2.2-1.1,2.9,2.9,0,0,0-2.1.9A3.4,3.4,0,0,0,400.2,156.3Z" fill="#fff"></path>
      <path d="M416.8,157.9l1.7-.2a4.2,4.2,0,0,0,.6,1.8,3,3,0,0,0,1.5,1.1,5.1,5.1,0,0,0,2.2.4,5.8,5.8,0,0,0,1.9-.3,2.3,2.3,0,0,0,1.2-.9,1.6,1.6,0,0,0,.4-1.2,1.9,1.9,0,0,0-.4-1.2,2.3,2.3,0,0,0-1.2-.8l-2.6-.7a13.1,13.1,0,0,1-2.8-.9,4.9,4.9,0,0,1-1.5-1.3,4.1,4.1,0,0,1-.5-1.8,3.6,3.6,0,0,1,.6-2,3.8,3.8,0,0,1,1.8-1.5,7.5,7.5,0,0,1,2.6-.5,6.8,6.8,0,0,1,2.9.6A3.4,3.4,0,0,1,427,150a3.4,3.4,0,0,1,.7,2.2l-1.8.2a2.8,2.8,0,0,0-1-2.1,3.6,3.6,0,0,0-2.5-.7,4.2,4.2,0,0,0-2.5.6,2.3,2.3,0,0,0-.8,1.6,1.4,1.4,0,0,0,.6,1.2,6,6,0,0,0,2.8,1,17.6,17.6,0,0,1,3.2,1,3.5,3.5,0,0,1,1.9,1.4,3.7,3.7,0,0,1,.6,2.1,4.4,4.4,0,0,1-.7,2.1,4.3,4.3,0,0,1-1.9,1.6,5.9,5.9,0,0,1-2.7.5,8.2,8.2,0,0,1-3.3-.5,5.1,5.1,0,0,1-2.1-1.7A5.6,5.6,0,0,1,416.8,157.9Z" fill="#fff"></path>
      <path d="M438.4,159.2l1.8.2a4.2,4.2,0,0,1-1.6,2.5,5,5,0,0,1-2.9.8,4.5,4.5,0,0,1-3.6-1.4,5.3,5.3,0,0,1-1.4-3.9,6,6,0,0,1,1.4-4.1,4.7,4.7,0,0,1,3.5-1.4,4.6,4.6,0,0,1,3.4,1.4,5.7,5.7,0,0,1,1.3,4v.5h-7.7a3.6,3.6,0,0,0,.9,2.6,2.9,2.9,0,0,0,2.2.9,2.8,2.8,0,0,0,1.6-.5A3.1,3.1,0,0,0,438.4,159.2Zm-5.7-2.9h5.7a3.1,3.1,0,0,0-.6-1.9,2.8,2.8,0,0,0-2.2-1.1,2.5,2.5,0,0,0-2,.9A2.6,2.6,0,0,0,432.7,156.3Z" fill="#fff"></path>
      <path d="M443.2,162.5V152.1h1.6v1.6a7.3,7.3,0,0,1,1.1-1.5,2.4,2.4,0,0,1,1.2-.3,3.8,3.8,0,0,1,1.8.6l-.6,1.6a2.4,2.4,0,0,0-1.3-.4,1.5,1.5,0,0,0-1.1.4,1.5,1.5,0,0,0-.6.9,6.6,6.6,0,0,0-.3,2.1v5.4Z" fill="#fff"></path>
      <path d="M453.6,162.5l-4-10.4h1.9l2.2,6.2a17.2,17.2,0,0,1,.7,2.1c.1-.5.4-1.2.6-1.9l2.3-6.4h1.9l-4,10.4Z" fill="#fff"></path>
      <path d="M461.5,150.2v-2h1.8v2Zm0,12.3V152.1h1.8v10.4Z" fill="#fff"></path>
      <path d="M473.5,158.7l1.7.2a4,4,0,0,1-1.4,2.8,4.1,4.1,0,0,1-2.9,1,4.2,4.2,0,0,1-3.4-1.4,5.3,5.3,0,0,1-1.3-3.9,7,7,0,0,1,.6-3,3.5,3.5,0,0,1,1.7-1.9,4.8,4.8,0,0,1,2.4-.6,4.7,4.7,0,0,1,2.8.8,4.1,4.1,0,0,1,1.4,2.5l-1.7.2a2.7,2.7,0,0,0-.9-1.5,2,2,0,0,0-1.5-.6,3,3,0,0,0-2.2,1,6,6,0,0,0,0,6,2.5,2.5,0,0,0,2.1,1,2.4,2.4,0,0,0,1.7-.6A3.1,3.1,0,0,0,473.5,158.7Z" fill="#fff"></path>
      <path d="M484.6,159.2l1.9.2a5.4,5.4,0,0,1-1.6,2.5,5.6,5.6,0,0,1-3,.8,4.5,4.5,0,0,1-3.6-1.4,5.3,5.3,0,0,1-1.3-3.9,5.9,5.9,0,0,1,1.3-4.1,4.8,4.8,0,0,1,3.5-1.4,4.6,4.6,0,0,1,3.4,1.4,5.7,5.7,0,0,1,1.3,4v.5h-7.7a4.1,4.1,0,0,0,.9,2.6,2.9,2.9,0,0,0,2.2.9,3.1,3.1,0,0,0,1.7-.5A3.7,3.7,0,0,0,484.6,159.2Zm-5.7-2.9h5.8a3,3,0,0,0-.7-1.9,2.8,2.8,0,0,0-2.2-1.1,2.5,2.5,0,0,0-2,.9A2.6,2.6,0,0,0,478.9,156.3Z" fill="#fff"></path>
      <path d="M488.8,159.4l1.7-.3a2.4,2.4,0,0,0,.8,1.6,2.9,2.9,0,0,0,1.9.6,3,3,0,0,0,1.8-.5,1.4,1.4,0,0,0,.6-1.2,1.1,1.1,0,0,0-.5-.9l-1.8-.6-2.7-.8a4,4,0,0,1-1.2-1,3.2,3.2,0,0,1-.3-1.4,2.8,2.8,0,0,1,.3-1.3,3.9,3.9,0,0,1,.8-1,3.3,3.3,0,0,1,1.2-.5l1.5-.2a6.6,6.6,0,0,1,2.1.3,3.9,3.9,0,0,1,1.4,1,3.4,3.4,0,0,1,.6,1.6l-1.7.2a1.9,1.9,0,0,0-.7-1.2,2.5,2.5,0,0,0-1.6-.5,3.2,3.2,0,0,0-1.7.4,1.1,1.1,0,0,0-.5,1,.7.7,0,0,0,.2.6c.1.2.3.3.6.5l1.6.4,2.6.8a2.7,2.7,0,0,1,1.2.9,4.2,4.2,0,0,1,.4,1.6,3.3,3.3,0,0,1-.5,1.6,4.4,4.4,0,0,1-1.5,1.2,5.4,5.4,0,0,1-2.2.4,4.8,4.8,0,0,1-3.1-.8A4,4,0,0,1,488.8,159.4Z" fill="#fff"></path>
    </g>
    <g>
      <path d="M233.2,563.4v-1.7h6.1V567a9.6,9.6,0,0,1-2.9,1.7,7.9,7.9,0,0,1-3,.5,8.6,8.6,0,0,1-3.9-.9,5.9,5.9,0,0,1-2.6-2.6,9.2,9.2,0,0,1-.8-3.8,10.1,10.1,0,0,1,.8-3.9,6.2,6.2,0,0,1,2.6-2.7,7.2,7.2,0,0,1,3.7-.9,7.8,7.8,0,0,1,2.8.5,5.1,5.1,0,0,1,2,1.4,6.7,6.7,0,0,1,1.1,2.4l-1.7.5a6.1,6.1,0,0,0-.8-1.8,3.9,3.9,0,0,0-1.4-1,6,6,0,0,0-2-.3,5.1,5.1,0,0,0-2.2.4,4,4,0,0,0-1.5,1,4.2,4.2,0,0,0-.9,1.4,7.2,7.2,0,0,0-.6,2.9,6.3,6.3,0,0,0,.7,3.2,3.9,3.9,0,0,0,1.9,1.9,6,6,0,0,0,2.7.6,6.7,6.7,0,0,0,2.4-.4l1.8-1v-2.7Z" fill="#005eaa"></path>
      <path d="M241.6,563.8a5.8,5.8,0,0,1,1.6-4.3,5.2,5.2,0,0,1,3.3-1.1,4.8,4.8,0,0,1,3.5,1.4,5.3,5.3,0,0,1,1.3,3.9,6.6,6.6,0,0,1-.6,3.1,3.7,3.7,0,0,1-1.7,1.8,5.4,5.4,0,0,1-2.5.6,4.3,4.3,0,0,1-3.5-1.4A5.4,5.4,0,0,1,241.6,563.8Zm1.8,0a4.5,4.5,0,0,0,.9,3,2.9,2.9,0,0,0,4.4,0,6,6,0,0,0,0-6,3.1,3.1,0,0,0-4.4,0A4.5,4.5,0,0,0,243.4,563.8Z" fill="#005eaa"></path>
      <path d="M256.7,569l-4-10.4h1.9l2.2,6.2a17.2,17.2,0,0,1,.7,2.1c.1-.5.4-1.2.6-1.9l2.3-6.4h1.8L258.3,569Z" fill="#005eaa"></path>
      <path d="M271.3,565.7l1.8.2a4.7,4.7,0,0,1-1.6,2.5,5.2,5.2,0,0,1-2.9.8,4.6,4.6,0,0,1-3.7-1.4,5.7,5.7,0,0,1-1.3-3.9,6,6,0,0,1,1.4-4.1,4.7,4.7,0,0,1,3.5-1.4,4.8,4.8,0,0,1,3.4,1.4,6.2,6.2,0,0,1,1.3,4v.5h-7.8a4.1,4.1,0,0,0,1,2.6,2.9,2.9,0,0,0,2.2.9,2.8,2.8,0,0,0,1.6-.5A3.8,3.8,0,0,0,271.3,565.7Zm-5.8-2.9h5.8a3.8,3.8,0,0,0-.6-1.9,2.8,2.8,0,0,0-2.2-1.1,2.9,2.9,0,0,0-2.1.9A3.4,3.4,0,0,0,265.5,562.8Z" fill="#005eaa"></path>
      <path d="M275.7,569V558.6h1.6v1.6a7.3,7.3,0,0,1,1.1-1.5,2,2,0,0,1,1.1-.3,3.2,3.2,0,0,1,1.8.6l-.6,1.6a2,2,0,0,0-1.3-.4,1.4,1.4,0,0,0-1,.4,1.5,1.5,0,0,0-.6.9,6.6,6.6,0,0,0-.3,2.1V569Z" fill="#005eaa"></path>
      <path d="M282.8,569V558.6h1.6v1.5a3.7,3.7,0,0,1,3.3-1.7,4.7,4.7,0,0,1,1.7.3l1.2.9a5,5,0,0,1,.5,1.3,7.2,7.2,0,0,1,.1,1.7V569h-1.7v-6.3a3.2,3.2,0,0,0-.3-1.6,1.3,1.3,0,0,0-.7-.9,2.1,2.1,0,0,0-1.2-.3,2.9,2.9,0,0,0-1.9.7,3.4,3.4,0,0,0-.9,2.7V569Z" fill="#005eaa"></path>
      <path d="M301.1,567.7a5.9,5.9,0,0,1-1.9,1.2,6.3,6.3,0,0,1-1.9.3,3.6,3.6,0,0,1-2.7-.8,2.9,2.9,0,0,1-.9-2.1,2.3,2.3,0,0,1,.4-1.4,2.2,2.2,0,0,1,.9-1,2.7,2.7,0,0,1,1.2-.6l1.6-.3a9.3,9.3,0,0,0,3.1-.6V562c0-.8-.1-1.3-.5-1.6a2.8,2.8,0,0,0-2-.5,3,3,0,0,0-1.8.4,2.7,2.7,0,0,0-.9,1.5l-1.7-.2a4.9,4.9,0,0,1,.8-1.8,3.3,3.3,0,0,1,1.5-1,6.1,6.1,0,0,1,2.4-.4,5.8,5.8,0,0,1,2.1.3,3.2,3.2,0,0,1,1.3.8,3.3,3.3,0,0,1,.5,1.2,6.2,6.2,0,0,1,.1,1.6v2.4a22,22,0,0,0,.1,3.1,3.1,3.1,0,0,0,.5,1.2h-1.9A2.8,2.8,0,0,1,301.1,567.7Zm-.2-3.9a11.3,11.3,0,0,1-2.8.7l-1.6.3a1.3,1.3,0,0,0-.7.6,1.9,1.9,0,0,0-.2.8,1.7,1.7,0,0,0,.5,1.2,2.5,2.5,0,0,0,1.6.5,3.5,3.5,0,0,0,1.8-.5,2.5,2.5,0,0,0,1.1-1.2,4.2,4.2,0,0,0,.3-1.8Z" fill="#005eaa"></path>
      <path d="M305.8,569V558.6h1.6v1.5a3.9,3.9,0,0,1,3.3-1.7,4.7,4.7,0,0,1,1.7.3,4.1,4.1,0,0,1,1.2.9,3.1,3.1,0,0,1,.6,1.3c0,.3.1.9.1,1.7V569h-1.8v-6.3a5.7,5.7,0,0,0-.2-1.6,1.6,1.6,0,0,0-.7-.9,2.8,2.8,0,0,0-1.3-.3,3.2,3.2,0,0,0-1.9.7,3.8,3.8,0,0,0-.8,2.7V569Z" fill="#005eaa"></path>
      <path d="M324.1,565.2l1.7.2a3.8,3.8,0,0,1-1.4,2.8,4.1,4.1,0,0,1-2.9,1,4.2,4.2,0,0,1-3.4-1.4,5.3,5.3,0,0,1-1.3-3.9,7,7,0,0,1,.6-3,3.5,3.5,0,0,1,1.7-1.9,4.8,4.8,0,0,1,2.4-.6,4.1,4.1,0,0,1,2.8.9,3.6,3.6,0,0,1,1.4,2.4l-1.7.2a2.7,2.7,0,0,0-.9-1.5,2,2,0,0,0-1.5-.6,3,3,0,0,0-2.2,1,6,6,0,0,0,0,6,2.6,2.6,0,0,0,2.1,1,2.4,2.4,0,0,0,1.7-.6A3.1,3.1,0,0,0,324.1,565.2Z" fill="#005eaa"></path>
      <path d="M334.8,565.7l1.9.2a5.4,5.4,0,0,1-1.6,2.5,5.6,5.6,0,0,1-3,.8,4.5,4.5,0,0,1-3.6-1.4,5.3,5.3,0,0,1-1.3-3.9,5.9,5.9,0,0,1,1.3-4.1,4.8,4.8,0,0,1,3.5-1.4,4.6,4.6,0,0,1,3.4,1.4,5.7,5.7,0,0,1,1.3,4v.5H329a4.1,4.1,0,0,0,.9,2.6,2.9,2.9,0,0,0,2.2.9,3.1,3.1,0,0,0,1.7-.5A3.7,3.7,0,0,0,334.8,565.7Zm-5.7-2.9h5.8a3,3,0,0,0-.7-1.9,2.8,2.8,0,0,0-2.2-1.1,2.5,2.5,0,0,0-2,.9A2.6,2.6,0,0,0,329.1,562.8Z" fill="#005eaa"></path>
    </g>
    <g>
      <path d="M257.3,270.4l1.8-.2a2.6,2.6,0,0,0,.6,1.8,2.7,2.7,0,0,0,1.4,1.1,5.1,5.1,0,0,0,2.2.4,5.8,5.8,0,0,0,1.9-.3,1.9,1.9,0,0,0,1.2-.9,1.6,1.6,0,0,0,.4-1.2,2.7,2.7,0,0,0-.3-1.2,3.2,3.2,0,0,0-1.3-.8l-2.6-.7a10.3,10.3,0,0,1-2.7-.9,5.3,5.3,0,0,1-1.6-1.3,4.1,4.1,0,0,1-.5-1.8,3.6,3.6,0,0,1,.6-2,3.8,3.8,0,0,1,1.8-1.5,7.6,7.6,0,0,1,2.7-.5,6.4,6.4,0,0,1,2.8.6,3.4,3.4,0,0,1,1.8,1.5,3.4,3.4,0,0,1,.7,2.2l-1.8.2a2.8,2.8,0,0,0-1-2.1,3.6,3.6,0,0,0-2.5-.7,4.4,4.4,0,0,0-2.5.6,2.3,2.3,0,0,0-.8,1.6,1.4,1.4,0,0,0,.6,1.2,6.1,6.1,0,0,0,2.9,1,15.9,15.9,0,0,1,3.1,1,3.5,3.5,0,0,1,1.9,1.4,3.7,3.7,0,0,1,.6,2.1,3.5,3.5,0,0,1-.7,2.1,3.8,3.8,0,0,1-1.9,1.6,5.9,5.9,0,0,1-2.7.5,8.2,8.2,0,0,1-3.3-.5,4.8,4.8,0,0,1-2-1.7A4.7,4.7,0,0,1,257.3,270.4Z" fill="#005eaa"></path>
      <path d="M278.2,271.2l1.7.2a4.4,4.4,0,0,1-1.4,2.8,4.8,4.8,0,0,1-6.3-.4,5.3,5.3,0,0,1-1.3-3.9,7,7,0,0,1,.6-3,3.8,3.8,0,0,1,1.6-1.9,5.4,5.4,0,0,1,2.5-.6,4.9,4.9,0,0,1,2.8.8,4.1,4.1,0,0,1,1.4,2.5l-1.7.2a2.7,2.7,0,0,0-.9-1.5,2,2,0,0,0-1.5-.6,3,3,0,0,0-2.2,1,6,6,0,0,0,0,6,2.4,2.4,0,0,0,2.1,1,2.4,2.4,0,0,0,1.7-.6A3.1,3.1,0,0,0,278.2,271.2Z" fill="#005eaa"></path>
      <path d="M281.8,262.7v-2h1.8v2Zm0,12.3V264.6h1.8V275Z" fill="#005eaa"></path>
      <path d="M293.8,271.7l1.8.2a4.7,4.7,0,0,1-1.6,2.5,5.6,5.6,0,0,1-3,.8,4.5,4.5,0,0,1-3.6-1.4,5.3,5.3,0,0,1-1.3-3.9,5.9,5.9,0,0,1,1.3-4.1,4.8,4.8,0,0,1,3.5-1.4,4.4,4.4,0,0,1,3.4,1.4,5.7,5.7,0,0,1,1.4,4,4.3,4.3,0,0,0-.1.5h-7.7a4.1,4.1,0,0,0,1,2.6,2.9,2.9,0,0,0,2.1.9,3.1,3.1,0,0,0,1.7-.5A5,5,0,0,0,293.8,271.7Zm-5.8-2.9h5.8a3,3,0,0,0-.7-1.9,2.6,2.6,0,0,0-2.1-1.1,2.7,2.7,0,0,0-2.1.9A3.4,3.4,0,0,0,288,268.8Z" fill="#005eaa"></path>
      <path d="M298.2,275V264.6h1.6v1.5a3.7,3.7,0,0,1,3.3-1.7,4.7,4.7,0,0,1,1.7.3l1.2.9a5,5,0,0,1,.5,1.3,7.2,7.2,0,0,1,.1,1.7V275h-1.7v-6.3a5.7,5.7,0,0,0-.2-1.6,1.8,1.8,0,0,0-.8-.9,2.1,2.1,0,0,0-1.2-.3,3.2,3.2,0,0,0-1.9.7c-.6.5-.8,1.4-.8,2.7V275Z" fill="#005eaa"></path>
      <path d="M313.6,273.4l.2,1.6h-1.3a3.1,3.1,0,0,1-1.5-.3,1.4,1.4,0,0,1-.7-.8,4.3,4.3,0,0,1-.3-2v-6h-1.2v-1.4H310v-2.5l1.8-1.1v3.6h1.8V266h-1.8v6.1c0,.5,0,.8.1.9s.1.3.3.4h1.4Z" fill="#005eaa"></path>
      <path d="M315.7,262.7v-2h1.7v2Zm0,12.3V264.6h1.7V275Z" fill="#005eaa"></path>
      <path d="M320.9,275v-9h-1.5v-1.4h1.5v-1.1a4.9,4.9,0,0,1,.2-1.5,2,2,0,0,1,.9-1.1,3,3,0,0,1,1.8-.5l1.7.2-.3,1.5h-1a1.7,1.7,0,0,0-1.2.3,1.9,1.9,0,0,0-.3,1.3v.9h2V266h-2v9Z" fill="#005eaa"></path>
      <path d="M326.5,262.7v-2h1.7v2Zm0,12.3V264.6h1.7V275Z" fill="#005eaa"></path>
      <path d="M338.1,271.2l1.7.2a5,5,0,0,1-1.4,2.8,4.3,4.3,0,0,1-2.9,1,4.1,4.1,0,0,1-3.4-1.4,5.3,5.3,0,0,1-1.3-3.9,9,9,0,0,1,.5-3A4.5,4.5,0,0,1,333,265a5.4,5.4,0,0,1,2.5-.6,4.9,4.9,0,0,1,2.8.8,4.7,4.7,0,0,1,1.4,2.5l-1.8.2a2.2,2.2,0,0,0-.8-1.5,2,2,0,0,0-1.5-.6,3,3,0,0,0-2.2,1,6,6,0,0,0,0,6,2.4,2.4,0,0,0,2.1,1,2.5,2.5,0,0,0,1.7-.6A3.1,3.1,0,0,0,338.1,271.2Z" fill="#005eaa"></path>
      <path d="M268.1,295l1.9.5a6.5,6.5,0,0,1-2.1,3.5,6,6,0,0,1-3.8,1.2,7.4,7.4,0,0,1-3.8-.9,6,6,0,0,1-2.2-2.7,10,10,0,0,1-.7-3.9,9.3,9.3,0,0,1,.8-3.9,6,6,0,0,1,2.5-2.5,6.7,6.7,0,0,1,3.4-.9,5.7,5.7,0,0,1,3.6,1.1,6.2,6.2,0,0,1,2.1,3.1l-1.9.4a3.6,3.6,0,0,0-3.8-2.9,4.4,4.4,0,0,0-2.8.8,4.1,4.1,0,0,0-1.5,2.1,8.6,8.6,0,0,0-.5,2.7,7.9,7.9,0,0,0,.6,3.2,3.6,3.6,0,0,0,1.6,2,4.4,4.4,0,0,0,2.4.7,4.1,4.1,0,0,0,4.2-3.6Z" fill="#005eaa"></path>
      <path d="M271.9,294.8a5.4,5.4,0,0,1,1.6-4.3,5.2,5.2,0,0,1,3.2-1.1,4.7,4.7,0,0,1,3.5,1.4,5.3,5.3,0,0,1,1.4,3.9,6.6,6.6,0,0,1-.6,3.1,4.2,4.2,0,0,1-1.7,1.8,5.5,5.5,0,0,1-2.6.6,4.5,4.5,0,0,1-3.5-1.4A5.4,5.4,0,0,1,271.9,294.8Zm1.8,0a4.5,4.5,0,0,0,.9,3,2.5,2.5,0,0,0,2.1,1,2.7,2.7,0,0,0,2.2-1,5.4,5.4,0,0,0,0-6,3,3,0,0,0-2.2-1,2.8,2.8,0,0,0-2.1,1A4.5,4.5,0,0,0,273.7,294.8Z" fill="#005eaa"></path>
      <path d="M284.1,300V289.6h1.5v1.5a4.9,4.9,0,0,1,1.3-1.2,3.2,3.2,0,0,1,1.9-.5,3.8,3.8,0,0,1,1.9.5,2.2,2.2,0,0,1,1,1.3,3.7,3.7,0,0,1,3.2-1.8,3.6,3.6,0,0,1,2.4.8,4.1,4.1,0,0,1,.8,2.7V300h-1.7v-6.5a6.3,6.3,0,0,0-.2-1.6,1.3,1.3,0,0,0-.6-.7,2,2,0,0,0-1.1-.3,2.9,2.9,0,0,0-1.8.7,3.3,3.3,0,0,0-.7,2.4v6h-1.8v-6.7a3,3,0,0,0-.4-1.8,1.7,1.7,0,0,0-1.4-.6,2.3,2.3,0,0,0-1.4.4,2.7,2.7,0,0,0-.9,1.2,5.8,5.8,0,0,0-.3,2.1V300Z" fill="#005eaa"></path>
      <path d="M301.1,304V289.6h1.6V291a3.7,3.7,0,0,1,1.3-1.2,3.3,3.3,0,0,1,1.7-.4,4,4,0,0,1,2.4.7,4.1,4.1,0,0,1,1.5,1.9,5.9,5.9,0,0,1,.5,2.7,8.4,8.4,0,0,1-.5,2.9,4.8,4.8,0,0,1-1.7,2,4.6,4.6,0,0,1-2.3.6,4.1,4.1,0,0,1-1.6-.3,5.2,5.2,0,0,1-1.1-1V304Zm1.6-9.1a4.6,4.6,0,0,0,.8,2.9,2.5,2.5,0,0,0,4,0,5.2,5.2,0,0,0,.8-3.1,4,4,0,0,0-.8-2.9,2.3,2.3,0,0,0-1.9-1,2.5,2.5,0,0,0-2,1A4.6,4.6,0,0,0,302.7,294.9Z" fill="#005eaa"></path>
      <path d="M319.4,300v-1.5a3.9,3.9,0,0,1-3.3,1.7,5.1,5.1,0,0,1-1.7-.3c-.5-.3-.9-.5-1.1-.9a3.1,3.1,0,0,1-.6-1.3,6.7,6.7,0,0,1-.1-1.6v-6.5h1.8v5.8a7.7,7.7,0,0,0,.1,1.8,1.4,1.4,0,0,0,.7,1.1,1.8,1.8,0,0,0,1.3.4,2.8,2.8,0,0,0,1.5-.4,2.7,2.7,0,0,0,1-1.1,5.3,5.3,0,0,0,.3-2v-5.6H321V300Z" fill="#005eaa"></path>
      <path d="M328,298.4l.3,1.6h-1.4a3.3,3.3,0,0,1-1.5-.3,1.4,1.4,0,0,1-.7-.8,7.5,7.5,0,0,1-.2-2v-6h-1.3v-1.4h1.3v-2.5l1.7-1.1v3.6H328V291h-1.8v6.1a5.5,5.5,0,0,0,.1.9l.3.4H328Z" fill="#005eaa"></path>
      <path d="M330.1,287.7v-2h1.8v2Zm0,12.3V289.6h1.8V300Z" fill="#005eaa"></path>
      <path d="M335,300V289.6h1.5v1.5a3.9,3.9,0,0,1,3.3-1.7,5.2,5.2,0,0,1,1.8.3,3.5,3.5,0,0,1,1.1.9,3.1,3.1,0,0,1,.6,1.3,7.2,7.2,0,0,1,.1,1.7V300h-1.8v-6.3a3.4,3.4,0,0,0-.2-1.6,1.3,1.3,0,0,0-.7-.9,2.4,2.4,0,0,0-1.2-.3,3.5,3.5,0,0,0-2,.7,3.8,3.8,0,0,0-.8,2.7V300Z" fill="#005eaa"></path>
      <path d="M346.2,300.9l1.7.2a1.4,1.4,0,0,0,.6,1.2,3.5,3.5,0,0,0,3.6,0,2.2,2.2,0,0,0,.9-1.4,9.9,9.9,0,0,0,.2-2.3,3.8,3.8,0,0,1-2.9,1.4,4,4,0,0,1-3.3-1.5,6.1,6.1,0,0,1-1.2-3.7,6.7,6.7,0,0,1,.6-2.8,3.6,3.6,0,0,1,1.5-1.9,4,4,0,0,1,2.4-.7,3.7,3.7,0,0,1,3,1.5v-1.3H355v9a8.6,8.6,0,0,1-.5,3.4,4.1,4.1,0,0,1-1.6,1.6,5.3,5.3,0,0,1-2.6.6,5.1,5.1,0,0,1-3-.8A2.6,2.6,0,0,1,346.2,300.9Zm1.4-6.3a4.7,4.7,0,0,0,.8,3,2.9,2.9,0,0,0,2.1.9,2.7,2.7,0,0,0,2-.9,4.6,4.6,0,0,0,.8-2.9,4.8,4.8,0,0,0-.8-2.9,2.6,2.6,0,0,0-4.1,0A4.4,4.4,0,0,0,347.6,294.6Z" fill="#005eaa"></path>
    </g>
    <g>
      <path d="M80.6,270l1.9.5a6.5,6.5,0,0,1-2.1,3.5,6,6,0,0,1-3.8,1.2,7.4,7.4,0,0,1-3.8-.9,6,6,0,0,1-2.2-2.7,10,10,0,0,1-.7-3.9,9.3,9.3,0,0,1,.8-3.9,6,6,0,0,1,2.5-2.5,6.7,6.7,0,0,1,3.4-.9,5.7,5.7,0,0,1,3.6,1.1,6.2,6.2,0,0,1,2.1,3.1l-1.9.4a3.6,3.6,0,0,0-3.8-2.9,4.4,4.4,0,0,0-2.8.8,4.1,4.1,0,0,0-1.5,2.1,8.6,8.6,0,0,0-.5,2.7,7.9,7.9,0,0,0,.6,3.2,3.6,3.6,0,0,0,1.6,2,4.4,4.4,0,0,0,2.4.7,4.1,4.1,0,0,0,4.2-3.6Z" fill="#005eaa"></path>
      <path d="M84.4,269.8a5.4,5.4,0,0,1,1.6-4.3,5.2,5.2,0,0,1,3.2-1.1,4.7,4.7,0,0,1,3.5,1.4,5.3,5.3,0,0,1,1.4,3.9,6.6,6.6,0,0,1-.6,3.1,4.2,4.2,0,0,1-1.7,1.8,5.5,5.5,0,0,1-2.6.6,4.5,4.5,0,0,1-3.5-1.4A5.4,5.4,0,0,1,84.4,269.8Zm1.8,0a4.5,4.5,0,0,0,.9,3,2.5,2.5,0,0,0,2.1,1,2.7,2.7,0,0,0,2.2-1,5.5,5.5,0,0,0,0-6,3,3,0,0,0-2.2-1,2.8,2.8,0,0,0-2.1,1A4.5,4.5,0,0,0,86.2,269.8Z" fill="#005eaa"></path>
      <path d="M96.6,275V264.6h1.5v1.5a4.9,4.9,0,0,1,1.3-1.2,3.2,3.2,0,0,1,1.9-.5,3.8,3.8,0,0,1,1.9.5,2.2,2.2,0,0,1,1,1.3,3.7,3.7,0,0,1,3.2-1.8,3.6,3.6,0,0,1,2.4.8,4.1,4.1,0,0,1,.8,2.7V275h-1.7v-6.5a6.3,6.3,0,0,0-.2-1.6,1.3,1.3,0,0,0-.6-.7,2,2,0,0,0-1.1-.3,2.9,2.9,0,0,0-1.8.7,3.3,3.3,0,0,0-.7,2.4v6h-1.8v-6.7a3,3,0,0,0-.4-1.8,1.7,1.7,0,0,0-1.4-.6,2.3,2.3,0,0,0-1.4.4,2.7,2.7,0,0,0-.9,1.2,5.8,5.8,0,0,0-.3,2.1V275Z" fill="#005eaa"></path>
      <path d="M113.6,279V264.6h1.6V266a3.7,3.7,0,0,1,1.3-1.2,3.3,3.3,0,0,1,1.7-.4,4,4,0,0,1,2.4.7,4.1,4.1,0,0,1,1.5,1.9,5.9,5.9,0,0,1,.5,2.7,8.4,8.4,0,0,1-.5,2.9,4.8,4.8,0,0,1-1.7,2,4.6,4.6,0,0,1-2.3.6,4.1,4.1,0,0,1-1.6-.3,5.2,5.2,0,0,1-1.1-1V279Zm1.6-9.1a4.6,4.6,0,0,0,.8,2.9,2.5,2.5,0,0,0,4,0,5.2,5.2,0,0,0,.8-3.1,4,4,0,0,0-.8-2.9,2.3,2.3,0,0,0-1.9-1,2.5,2.5,0,0,0-2,1A4.6,4.6,0,0,0,115.2,269.9Z" fill="#005eaa"></path>
      <path d="M131.9,275v-1.5a3.9,3.9,0,0,1-3.3,1.7,5.1,5.1,0,0,1-1.7-.3c-.5-.3-.9-.5-1.1-.9a3.1,3.1,0,0,1-.6-1.3,6.7,6.7,0,0,1-.1-1.6v-6.5h1.8v5.8a7.7,7.7,0,0,0,.1,1.8,1.4,1.4,0,0,0,.7,1.1,1.8,1.8,0,0,0,1.3.4,2.8,2.8,0,0,0,1.5-.4,2.7,2.7,0,0,0,1-1.1,5.3,5.3,0,0,0,.3-2v-5.6h1.7V275Z" fill="#005eaa"></path>
      <path d="M140.5,273.4l.3,1.6h-1.4a3.3,3.3,0,0,1-1.5-.3,1.4,1.4,0,0,1-.7-.8,7.5,7.5,0,0,1-.2-2v-6h-1.3v-1.4H137v-2.5l1.7-1.1v3.6h1.8V266h-1.8v6.1a5.5,5.5,0,0,0,.1.9l.3.4h1.4Z" fill="#005eaa"></path>
      <path d="M149.7,271.7l1.8.2a4.2,4.2,0,0,1-1.6,2.5,5,5,0,0,1-2.9.8,4.5,4.5,0,0,1-3.6-1.4,5.3,5.3,0,0,1-1.4-3.9,6,6,0,0,1,1.4-4.1,4.7,4.7,0,0,1,3.5-1.4,4.6,4.6,0,0,1,3.4,1.4,5.7,5.7,0,0,1,1.3,4v.5h-7.7a3.6,3.6,0,0,0,.9,2.6,2.9,2.9,0,0,0,2.2.9,2.8,2.8,0,0,0,1.6-.5A3.1,3.1,0,0,0,149.7,271.7Zm-5.7-2.9h5.7a3.1,3.1,0,0,0-.6-1.9,2.8,2.8,0,0,0-2.2-1.1,2.5,2.5,0,0,0-2,.9A2.6,2.6,0,0,0,144,268.8Z" fill="#005eaa"></path>
      <path d="M154.1,275V264.6h1.6v1.6a7.3,7.3,0,0,1,1.1-1.5,2.4,2.4,0,0,1,1.2-.3,3.8,3.8,0,0,1,1.8.6l-.6,1.6a2.4,2.4,0,0,0-1.3-.4,1.5,1.5,0,0,0-1.1.4,1.5,1.5,0,0,0-.6.9,6.6,6.6,0,0,0-.3,2.1V275Z" fill="#005eaa"></path>
      <path d="M68.8,300l5.5-14.3h2.1L82.2,300H80.1l-1.7-4.3h-6L70.9,300Zm4.2-5.9h4.8l-1.5-3.9c-.4-1.2-.8-2.2-1-3a13.8,13.8,0,0,1-.8,2.7Z" fill="#005eaa"></path>
      <path d="M83.9,300V285.7h1.8V300Z" fill="#005eaa"></path>
      <path d="M88.5,300.9l1.7.2a1.4,1.4,0,0,0,.6,1.2,2.9,2.9,0,0,0,1.7.5,3.1,3.1,0,0,0,1.9-.5,2.2,2.2,0,0,0,.9-1.4,9.9,9.9,0,0,0,.2-2.3,3.8,3.8,0,0,1-2.9,1.4,4,4,0,0,1-3.3-1.5,6.1,6.1,0,0,1-1.2-3.7,8.7,8.7,0,0,1,.5-2.8,4.3,4.3,0,0,1,1.6-1.9,4,4,0,0,1,2.4-.7,3.7,3.7,0,0,1,3,1.5v-1.3h1.6v9a7.1,7.1,0,0,1-.5,3.4,3.3,3.3,0,0,1-1.5,1.6,5.3,5.3,0,0,1-2.6.6,5.1,5.1,0,0,1-3-.8A2.6,2.6,0,0,1,88.5,300.9Zm1.4-6.3a4.7,4.7,0,0,0,.8,3,2.7,2.7,0,0,0,2.1.9,2.7,2.7,0,0,0,2-.9,4.6,4.6,0,0,0,.8-2.9,4.8,4.8,0,0,0-.8-2.9,3,3,0,0,0-2.1-1,2.8,2.8,0,0,0-2,1A4.4,4.4,0,0,0,89.9,294.6Z" fill="#005eaa"></path>
      <path d="M107.4,296.7l1.8.2a4.7,4.7,0,0,1-1.6,2.5,5.2,5.2,0,0,1-2.9.8,4.6,4.6,0,0,1-3.7-1.4,5.7,5.7,0,0,1-1.3-3.9,6,6,0,0,1,1.4-4.1,4.7,4.7,0,0,1,3.5-1.4,4.8,4.8,0,0,1,3.4,1.4,6.2,6.2,0,0,1,1.3,4v.5h-7.8a4.1,4.1,0,0,0,1,2.6,2.9,2.9,0,0,0,2.2.9,2.8,2.8,0,0,0,1.6-.5A3.8,3.8,0,0,0,107.4,296.7Zm-5.8-2.9h5.8a3.8,3.8,0,0,0-.6-1.9,2.8,2.8,0,0,0-2.2-1.1,2.9,2.9,0,0,0-2.1.9A3.4,3.4,0,0,0,101.6,293.8Z" fill="#005eaa"></path>
      <path d="M113.4,300h-1.6V285.7h1.8v5.1a3.5,3.5,0,0,1,2.8-1.4,3.7,3.7,0,0,1,1.8.4,2.6,2.6,0,0,1,1.4,1.1,4.2,4.2,0,0,1,.9,1.6,7.8,7.8,0,0,1,.3,2.2,5.9,5.9,0,0,1-1.3,4.1,4.3,4.3,0,0,1-3.2,1.4,3.4,3.4,0,0,1-2.9-1.5Zm0-5.3a5.6,5.6,0,0,0,.5,2.7,2.7,2.7,0,0,0,2.3,1.4,2.6,2.6,0,0,0,2-1,6,6,0,0,0,0-6,2.6,2.6,0,0,0-1.9-1,2.6,2.6,0,0,0-2,1A4.4,4.4,0,0,0,113.4,294.7Z" fill="#005eaa"></path>
      <path d="M123.3,300V289.6h1.6v1.6a7.3,7.3,0,0,1,1.1-1.5,2.4,2.4,0,0,1,1.2-.3,3.8,3.8,0,0,1,1.8.6l-.6,1.6a2.4,2.4,0,0,0-1.3-.4,1.5,1.5,0,0,0-1.1.4,1.5,1.5,0,0,0-.6.9,6.6,6.6,0,0,0-.3,2.1V300Z" fill="#005eaa"></path>
      <path d="M137.2,298.7a5.9,5.9,0,0,1-1.9,1.2,6.3,6.3,0,0,1-1.9.3,3.6,3.6,0,0,1-2.7-.8,2.9,2.9,0,0,1-.9-2.1,2.3,2.3,0,0,1,.4-1.4,2.2,2.2,0,0,1,.9-1,2.7,2.7,0,0,1,1.2-.6l1.6-.3a9.3,9.3,0,0,0,3.1-.6V293c0-.8-.1-1.3-.5-1.6a2.8,2.8,0,0,0-2-.6,3,3,0,0,0-1.8.5,2.7,2.7,0,0,0-.9,1.5l-1.7-.2a4.9,4.9,0,0,1,.8-1.8,3.3,3.3,0,0,1,1.5-1,6.1,6.1,0,0,1,2.4-.4,5.8,5.8,0,0,1,2.1.3,3.2,3.2,0,0,1,1.3.8,3.3,3.3,0,0,1,.5,1.2,6.2,6.2,0,0,1,.1,1.6v2.4a22,22,0,0,0,.1,3.1,3.1,3.1,0,0,0,.5,1.2h-1.9A2.8,2.8,0,0,1,137.2,298.7Zm-.2-3.9a11.3,11.3,0,0,1-2.8.7l-1.6.3a1.3,1.3,0,0,0-.7.6,1.9,1.9,0,0,0-.2.8,1.7,1.7,0,0,0,.5,1.2,2.5,2.5,0,0,0,1.6.5,3.5,3.5,0,0,0,1.8-.5,2.5,2.5,0,0,0,1.1-1.2,4.2,4.2,0,0,0,.3-1.8Z" fill="#005eaa"></path>
    </g>
    <g>
      <path d="M444.8,270.4l1.8-.2a2.6,2.6,0,0,0,.6,1.8,2.7,2.7,0,0,0,1.4,1.1,5.1,5.1,0,0,0,2.2.4,5.8,5.8,0,0,0,1.9-.3,1.9,1.9,0,0,0,1.2-.9,1.6,1.6,0,0,0,.4-1.2,2.7,2.7,0,0,0-.3-1.2,3.2,3.2,0,0,0-1.3-.8l-2.6-.7a10.3,10.3,0,0,1-2.7-.9,5.3,5.3,0,0,1-1.6-1.3,4.1,4.1,0,0,1-.5-1.8,3.6,3.6,0,0,1,.6-2,3.8,3.8,0,0,1,1.8-1.5,7.6,7.6,0,0,1,2.7-.5,6.4,6.4,0,0,1,2.8.6,3.4,3.4,0,0,1,1.8,1.5,3.4,3.4,0,0,1,.7,2.2l-1.8.2a2.8,2.8,0,0,0-1-2.1,3.6,3.6,0,0,0-2.5-.7,4.4,4.4,0,0,0-2.5.6,2.3,2.3,0,0,0-.8,1.6,1.4,1.4,0,0,0,.6,1.2,6.1,6.1,0,0,0,2.9,1,15.9,15.9,0,0,1,3.1,1,3.5,3.5,0,0,1,1.9,1.4,3.7,3.7,0,0,1,.6,2.1,3.5,3.5,0,0,1-.7,2.1,3.8,3.8,0,0,1-1.9,1.6,5.9,5.9,0,0,1-2.7.5,8.2,8.2,0,0,1-3.3-.5,4.8,4.8,0,0,1-2-1.7A4.7,4.7,0,0,1,444.8,270.4Z" fill="#005eaa"></path>
      <path d="M462.8,273.4l.2,1.6h-1.3a3.3,3.3,0,0,1-1.5-.3,1.4,1.4,0,0,1-.7-.8,4.8,4.8,0,0,1-.2-2v-6H458v-1.4h1.3v-2.5L461,261v3.6h1.8V266H461v6.1c0,.5,0,.8.1.9l.3.4h1.4Z" fill="#005eaa"></path>
      <path d="M471.7,273.7a5.9,5.9,0,0,1-1.9,1.2,6.4,6.4,0,0,1-2,.3,3.5,3.5,0,0,1-2.6-.8,2.9,2.9,0,0,1-.9-2.1,3.2,3.2,0,0,1,.3-1.4,4.5,4.5,0,0,1,.9-1,3.1,3.1,0,0,1,1.3-.6l1.6-.3a9.9,9.9,0,0,0,3.1-.6V268c0-.8-.1-1.3-.5-1.6a2.8,2.8,0,0,0-2-.6,3,3,0,0,0-1.8.5,2.7,2.7,0,0,0-.9,1.5l-1.7-.2a4.9,4.9,0,0,1,.8-1.8,2.8,2.8,0,0,1,1.5-1,6.1,6.1,0,0,1,2.4-.4,5.8,5.8,0,0,1,2.1.3,3.2,3.2,0,0,1,1.3.8,3.3,3.3,0,0,1,.5,1.2,6.2,6.2,0,0,1,.1,1.6v2.4a22,22,0,0,0,.1,3.1,5.6,5.6,0,0,0,.4,1.2H472A2.8,2.8,0,0,1,471.7,273.7Zm-.2-3.9a11.1,11.1,0,0,1-2.9.7l-1.5.3a1.3,1.3,0,0,0-.7.6,1.1,1.1,0,0,0-.2.8,1.3,1.3,0,0,0,.5,1.2,2.5,2.5,0,0,0,1.6.5,4.1,4.1,0,0,0,1.8-.5,2.5,2.5,0,0,0,1.1-1.2,4.2,4.2,0,0,0,.3-1.8Z" fill="#005eaa"></path>
      <path d="M480.3,273.4l.2,1.6h-1.3a2.8,2.8,0,0,1-1.5-.3,1.6,1.6,0,0,1-.8-.8,7.5,7.5,0,0,1-.2-2v-6h-1.3v-1.4h1.3v-2.5l1.8-1.1v3.6h1.8V266h-1.8v6.1c0,.5,0,.8.1.9s.1.3.3.4h1.4Z" fill="#005eaa"></path>
      <path d="M482.4,262.7v-2h1.7v2Zm0,12.3V264.6h1.7V275Z" fill="#005eaa"></path>
      <path d="M486.5,271.9l1.7-.3a2.2,2.2,0,0,0,.9,1.6,2.4,2.4,0,0,0,1.8.6,3,3,0,0,0,1.8-.5,1.4,1.4,0,0,0,.6-1.2,1.1,1.1,0,0,0-.5-.9,4.4,4.4,0,0,0-1.8-.6l-2.7-.8a2.7,2.7,0,0,1-1.1-1,2.3,2.3,0,0,1-.4-1.4,2.8,2.8,0,0,1,.3-1.3,3.1,3.1,0,0,1,2-1.5l1.5-.2a7.8,7.8,0,0,1,2.2.3,3.4,3.4,0,0,1,1.3,1,3.4,3.4,0,0,1,.6,1.6l-1.7.2a1.9,1.9,0,0,0-.7-1.2,2.3,2.3,0,0,0-1.6-.5,3.5,3.5,0,0,0-1.7.4,1.4,1.4,0,0,0-.5,1,1.4,1.4,0,0,0,.2.6l.7.5,1.5.4a13.7,13.7,0,0,1,2.6.8,2.7,2.7,0,0,1,1.2.9,2.9,2.9,0,0,1,.4,1.6,2.5,2.5,0,0,1-.5,1.6,3.1,3.1,0,0,1-1.5,1.2,4.8,4.8,0,0,1-2.2.4,4.5,4.5,0,0,1-3-.8A4.1,4.1,0,0,1,486.5,271.9Z" fill="#005eaa"></path>
      <path d="M501.5,273.4l.2,1.6h-1.3a2.8,2.8,0,0,1-1.5-.3,1.1,1.1,0,0,1-.7-.8,4.3,4.3,0,0,1-.3-2v-6h-1.3v-1.4h1.3v-2.5l1.8-1.1v3.6h1.8V266h-1.8v6.1c0,.5,0,.8.1.9s.1.3.3.4h1.4Z" fill="#005eaa"></path>
      <path d="M503.6,262.7v-2h1.7v2Zm0,12.3V264.6h1.7V275Z" fill="#005eaa"></path>
      <path d="M515.2,271.2l1.7.2a5,5,0,0,1-1.4,2.8,4.3,4.3,0,0,1-2.9,1,4.1,4.1,0,0,1-3.4-1.4,5.3,5.3,0,0,1-1.3-3.9,9,9,0,0,1,.5-3,4.5,4.5,0,0,1,1.7-1.9,5.4,5.4,0,0,1,2.5-.6,4.9,4.9,0,0,1,2.8.8,4,4,0,0,1,1.3,2.5l-1.7.2a2.2,2.2,0,0,0-.8-1.5,2,2,0,0,0-1.5-.6,3,3,0,0,0-2.2,1,4.7,4.7,0,0,0-.8,3,4.2,4.2,0,0,0,.8,3,2.4,2.4,0,0,0,2.1,1,2.5,2.5,0,0,0,1.7-.6A3.1,3.1,0,0,0,515.2,271.2Z" fill="#005eaa"></path>
      <path d="M518.1,271.9l1.7-.3a2.2,2.2,0,0,0,.9,1.6,2.4,2.4,0,0,0,1.8.6,3,3,0,0,0,1.8-.5,1.4,1.4,0,0,0,.6-1.2,1.1,1.1,0,0,0-.5-.9,4.4,4.4,0,0,0-1.8-.6l-2.7-.8a2.7,2.7,0,0,1-1.1-1,2.3,2.3,0,0,1-.4-1.4,2.8,2.8,0,0,1,.3-1.3,3.1,3.1,0,0,1,2-1.5l1.5-.2a7.8,7.8,0,0,1,2.2.3,3.4,3.4,0,0,1,1.3,1,3.4,3.4,0,0,1,.6,1.6l-1.7.2a1.9,1.9,0,0,0-.7-1.2,2.3,2.3,0,0,0-1.6-.5,3.5,3.5,0,0,0-1.7.4,1.4,1.4,0,0,0-.5,1,1.4,1.4,0,0,0,.2.6l.7.5,1.5.4,2.6.8a2.7,2.7,0,0,1,1.2.9,2.9,2.9,0,0,1,.4,1.6,2.5,2.5,0,0,1-.5,1.6,3.1,3.1,0,0,1-1.5,1.2,4.8,4.8,0,0,1-2.2.4,4.5,4.5,0,0,1-3-.8A4.1,4.1,0,0,1,518.1,271.9Z" fill="#005eaa"></path>
      <path d="M541.9,273.7a4.7,4.7,0,0,1-1.8,1.2,6.4,6.4,0,0,1-2,.3,3.5,3.5,0,0,1-2.6-.8,2.9,2.9,0,0,1-.9-2.1,3.2,3.2,0,0,1,.3-1.4,4.5,4.5,0,0,1,.9-1,3.1,3.1,0,0,1,1.3-.6l1.6-.3a9.9,9.9,0,0,0,3.1-.6V268a2.2,2.2,0,0,0-.5-1.6,2.8,2.8,0,0,0-2-.6,3,3,0,0,0-1.8.5,2.7,2.7,0,0,0-.9,1.5l-1.7-.2a4.8,4.8,0,0,1,.7-1.8,3.7,3.7,0,0,1,1.6-1,6.1,6.1,0,0,1,2.4-.4,6.2,6.2,0,0,1,2.1.3,2.7,2.7,0,0,1,1.8,2c0,.3.1.8.1,1.6v2.4a22,22,0,0,0,.1,3.1,5.6,5.6,0,0,0,.4,1.2h-1.8A5,5,0,0,1,541.9,273.7Zm-.1-3.9a11.1,11.1,0,0,1-2.9.7l-1.5.3a1.3,1.3,0,0,0-.7.6,1.1,1.1,0,0,0-.3.8,1.4,1.4,0,0,0,.6,1.2,2.3,2.3,0,0,0,1.5.5,3.5,3.5,0,0,0,1.8-.5,2.3,2.3,0,0,0,1.2-1.2,4.2,4.2,0,0,0,.3-1.8Z" fill="#005eaa"></path>
      <path d="M546.7,275V264.6h1.6v1.5a3.7,3.7,0,0,1,3.3-1.7,4.7,4.7,0,0,1,1.7.3l1.2.9a5,5,0,0,1,.5,1.3,7.2,7.2,0,0,1,.1,1.7V275h-1.7v-6.3a5.7,5.7,0,0,0-.2-1.6,1.8,1.8,0,0,0-.8-.9,2.1,2.1,0,0,0-1.2-.3,3.2,3.2,0,0,0-1.9.7,3.4,3.4,0,0,0-.9,2.7V275Z" fill="#005eaa"></path>
      <path d="M564.9,275v-1.3a3.2,3.2,0,0,1-2.9,1.5,4.3,4.3,0,0,1-2.2-.6,4,4,0,0,1-1.6-2,6.1,6.1,0,0,1-.6-2.8,8.2,8.2,0,0,1,.5-2.8,3.8,3.8,0,0,1,1.6-1.9,3.5,3.5,0,0,1,2.3-.7,2.9,2.9,0,0,1,1.6.4,4,4,0,0,1,1.2,1v-5.1h1.8V275Zm-5.5-5.2a4.9,4.9,0,0,0,.8,3,2.5,2.5,0,0,0,4,0,4.3,4.3,0,0,0,.8-2.8,5.6,5.6,0,0,0-.8-3.2,3,3,0,0,0-2.1-1,2.6,2.6,0,0,0-1.9,1A4.3,4.3,0,0,0,559.4,269.8Z" fill="#005eaa"></path>
      <path d="M445.4,300V285.7h2.8l3.4,10.1a16.5,16.5,0,0,0,.7,2.1c.1-.5.4-1.2.7-2.3l3.5-9.9H459V300h-1.8V288L453,300h-1.7l-4.1-12.2V300Z" fill="#005eaa"></path>
      <path d="M468.6,298.7a5,5,0,0,1-1.9,1.2,5.8,5.8,0,0,1-1.9.3,3.5,3.5,0,0,1-2.6-.8,2.9,2.9,0,0,1-.9-2.1,3.2,3.2,0,0,1,.3-1.4,2.2,2.2,0,0,1,.9-1,3.1,3.1,0,0,1,1.3-.6l1.5-.3a10,10,0,0,0,3.2-.6V293a2.2,2.2,0,0,0-.5-1.6,3,3,0,0,0-2-.6,2.4,2.4,0,0,0-2.7,2l-1.7-.2a4.8,4.8,0,0,1,.7-1.8,3.7,3.7,0,0,1,1.6-1,5.6,5.6,0,0,1,2.3-.4,6.9,6.9,0,0,1,2.2.3,2.8,2.8,0,0,1,1.2.8,2.3,2.3,0,0,1,.6,1.2c0,.3.1.8.1,1.6v2.4a22,22,0,0,0,.1,3.1,2.8,2.8,0,0,0,.4,1.2H469A5,5,0,0,1,468.6,298.7Zm-.1-3.9a12.3,12.3,0,0,1-2.9.7l-1.5.3a1.1,1.1,0,0,0-.7.6,1.1,1.1,0,0,0-.3.8,1.4,1.4,0,0,0,.6,1.2,2.1,2.1,0,0,0,1.5.5,3.5,3.5,0,0,0,1.8-.5,2.8,2.8,0,0,0,1.2-1.2,4.2,4.2,0,0,0,.3-1.8Z" fill="#005eaa"></path>
      <path d="M479.7,296.2l1.8.2a4.5,4.5,0,0,1-1.5,2.8,4,4,0,0,1-2.8,1,4.3,4.3,0,0,1-3.5-1.4,5.7,5.7,0,0,1-1.3-3.9,7,7,0,0,1,.6-3,3.9,3.9,0,0,1,1.7-1.9,5.1,5.1,0,0,1,2.5-.6,4.6,4.6,0,0,1,2.7.8,4.1,4.1,0,0,1,1.4,2.5l-1.7.2a2.7,2.7,0,0,0-.9-1.5,2,2,0,0,0-1.5-.6,2.7,2.7,0,0,0-2.1,1,4.1,4.1,0,0,0-.9,3,4.7,4.7,0,0,0,.8,3,2.6,2.6,0,0,0,2.1,1,2.8,2.8,0,0,0,1.8-.6A3.7,3.7,0,0,0,479.7,296.2Z" fill="#005eaa"></path>
      <path d="M483,300V285.7h1.7v5.1a4.3,4.3,0,0,1,3.1-1.4,4,4,0,0,1,2,.4,4,4,0,0,1,1.3,1.3,6.7,6.7,0,0,1,.3,2.3V300h-1.7v-6.6a2.5,2.5,0,0,0-.6-1.9,2.1,2.1,0,0,0-1.6-.6,2.8,2.8,0,0,0-1.5.4,2.6,2.6,0,0,0-1,1.1,5,5,0,0,0-.3,1.9V300Z" fill="#005eaa"></path>
      <path d="M494.6,300v-2h2v2Z" fill="#005eaa"></path>
      <path d="M503,300V285.7h1.9v12.6h7V300Z" fill="#005eaa"></path>
      <path d="M521,296.7l1.9.2a5.4,5.4,0,0,1-1.6,2.5,5.6,5.6,0,0,1-3,.8,4.5,4.5,0,0,1-3.6-1.4,5.3,5.3,0,0,1-1.4-3.9,6,6,0,0,1,1.4-4.1,4.8,4.8,0,0,1,3.5-1.4,4.6,4.6,0,0,1,3.4,1.4,5.7,5.7,0,0,1,1.3,4v.5h-7.7a4.1,4.1,0,0,0,.9,2.6,2.9,2.9,0,0,0,2.2.9,3.4,3.4,0,0,0,1.7-.5A3.7,3.7,0,0,0,521,296.7Zm-5.7-2.9h5.8a3,3,0,0,0-.7-1.9,2.8,2.8,0,0,0-2.2-1.1,2.5,2.5,0,0,0-2,.9A2.6,2.6,0,0,0,515.3,293.8Z" fill="#005eaa"></path>
      <path d="M531.8,298.7a5,5,0,0,1-1.9,1.2,5.8,5.8,0,0,1-1.9.3,3.5,3.5,0,0,1-2.6-.8,2.9,2.9,0,0,1-.9-2.1,3.2,3.2,0,0,1,.3-1.4,2.2,2.2,0,0,1,.9-1,3.1,3.1,0,0,1,1.3-.6l1.5-.3a10,10,0,0,0,3.2-.6V293a2.2,2.2,0,0,0-.5-1.6,3.6,3.6,0,0,0-3.8-.1,2.7,2.7,0,0,0-.9,1.5l-1.7-.2a4.8,4.8,0,0,1,.7-1.8,3.7,3.7,0,0,1,1.6-1,5.9,5.9,0,0,1,2.3-.4,6.9,6.9,0,0,1,2.2.3,2.7,2.7,0,0,1,1.8,2c0,.3.1.8.1,1.6v2.4a22,22,0,0,0,.1,3.1,2.8,2.8,0,0,0,.4,1.2h-1.8A5,5,0,0,1,531.8,298.7Zm-.1-3.9a12.3,12.3,0,0,1-2.9.7l-1.5.3a1.1,1.1,0,0,0-.7.6,1.1,1.1,0,0,0-.3.8,1.4,1.4,0,0,0,.6,1.2,2.1,2.1,0,0,0,1.5.5,3.5,3.5,0,0,0,1.8-.5,2.8,2.8,0,0,0,1.2-1.2,4.2,4.2,0,0,0,.3-1.8Z" fill="#005eaa"></path>
      <path d="M536.2,300V289.6h1.5v1.6a4.9,4.9,0,0,1,1.2-1.5,2,2,0,0,1,1.1-.3,3.2,3.2,0,0,1,1.8.6l-.6,1.6a2.2,2.2,0,0,0-1.3-.4,1.3,1.3,0,0,0-1,.4,1.6,1.6,0,0,0-.7.9,6.6,6.6,0,0,0-.3,2.1V300Z" fill="#005eaa"></path>
      <path d="M542.8,300V289.6h1.6v1.5a3.9,3.9,0,0,1,3.3-1.7,4.7,4.7,0,0,1,1.7.3,3,3,0,0,1,1.8,2.2c0,.3.1.9.1,1.7V300h-1.8v-6.3a5.7,5.7,0,0,0-.2-1.6,1.6,1.6,0,0,0-.7-.9,2.7,2.7,0,0,0-1.2-.3,3.5,3.5,0,0,0-2,.7,3.8,3.8,0,0,0-.8,2.7V300Z" fill="#005eaa"></path>
      <path d="M554,287.7v-2h1.7v2Zm0,12.3V289.6h1.7V300Z" fill="#005eaa"></path>
      <path d="M558.4,300V289.6H560v1.5a3.9,3.9,0,0,1,3.3-1.7,4.7,4.7,0,0,1,1.7.3l1.2.9a2.9,2.9,0,0,1,.5,1.3,7.2,7.2,0,0,1,.1,1.7V300h-1.7v-6.3a5.7,5.7,0,0,0-.2-1.6,1.8,1.8,0,0,0-.8-.9,2.1,2.1,0,0,0-1.2-.3,3.2,3.2,0,0,0-1.9.7c-.6.5-.8,1.4-.8,2.7V300Z" fill="#005eaa"></path>
      <path d="M569.2,300.9l1.7.2a2.3,2.3,0,0,0,.6,1.2,3,3,0,0,0,1.8.5,3.6,3.6,0,0,0,1.9-.5,3.4,3.4,0,0,0,.9-1.4,12.3,12.3,0,0,0,.1-2.3,3.7,3.7,0,0,1-2.9,1.4,4,4,0,0,1-3.3-1.5,6,6,0,0,1-1.1-3.7,6.6,6.6,0,0,1,.5-2.8,4.3,4.3,0,0,1,1.6-1.9,3.5,3.5,0,0,1,2.3-.7,3.7,3.7,0,0,1,3.1,1.5v-1.3H578v9a8.6,8.6,0,0,1-.5,3.4,3.1,3.1,0,0,1-1.6,1.6,5,5,0,0,1-2.6.6,5.6,5.6,0,0,1-3-.8A3.1,3.1,0,0,1,569.2,300.9Zm1.5-6.3a4.2,4.2,0,0,0,.8,3,2.7,2.7,0,0,0,4,0,4,4,0,0,0,.9-2.9,4.2,4.2,0,0,0-.9-2.9,2.8,2.8,0,0,0-2-1,2.6,2.6,0,0,0-2,1A3.9,3.9,0,0,0,570.7,294.6Z" fill="#005eaa"></path>
    </g>
    <g>
      <path d="M633.2,275V260.7h1.9V275Z" fill="#005eaa"></path>
      <path d="M638.7,275V264.6h1.6v1.5a3.9,3.9,0,0,1,3.3-1.7,5.2,5.2,0,0,1,1.8.3,3.5,3.5,0,0,1,1.1.9,3.1,3.1,0,0,1,.6,1.3c0,.3.1.9.1,1.7V275h-1.8v-6.3a3.4,3.4,0,0,0-.2-1.6,1.6,1.6,0,0,0-.7-.9,2.7,2.7,0,0,0-1.2-.3,3.5,3.5,0,0,0-2,.7,3.8,3.8,0,0,0-.8,2.7V275Z" fill="#005eaa"></path>
      <path d="M654.2,273.4l.3,1.6h-1.4a2.6,2.6,0,0,1-1.4-.3,1.6,1.6,0,0,1-.8-.8,7.5,7.5,0,0,1-.2-2v-6h-1.3v-1.4h1.3v-2.5l1.7-1.1v3.6h1.8V266h-1.8v6.1a5.5,5.5,0,0,0,.1.9l.3.4h1.4Z" fill="#005eaa"></path>
      <path d="M663.5,271.7l1.8.2a4.6,4.6,0,0,1-1.5,2.5,5.6,5.6,0,0,1-3,.8,4.5,4.5,0,0,1-3.6-1.4,5.3,5.3,0,0,1-1.4-3.9,6,6,0,0,1,1.4-4.1,4.8,4.8,0,0,1,3.5-1.4,4.6,4.6,0,0,1,3.4,1.4,5.7,5.7,0,0,1,1.3,4v.5h-7.7a3.6,3.6,0,0,0,.9,2.6,2.9,2.9,0,0,0,2.2.9,2.8,2.8,0,0,0,1.6-.5A3.1,3.1,0,0,0,663.5,271.7Zm-5.7-2.9h5.7a3.1,3.1,0,0,0-.6-1.9,2.8,2.8,0,0,0-2.2-1.1,2.5,2.5,0,0,0-2,.9A2.6,2.6,0,0,0,657.8,268.8Z" fill="#005eaa"></path>
      <path d="M668,275V264.6h1.6v1.6a7.3,7.3,0,0,1,1.1-1.5,2.4,2.4,0,0,1,1.2-.3,3.2,3.2,0,0,1,1.8.6l-.6,1.6a2.4,2.4,0,0,0-1.3-.4,1.5,1.5,0,0,0-1.1.4,1.5,1.5,0,0,0-.6.9,6.6,6.6,0,0,0-.3,2.1V275Z" fill="#005eaa"></path>
      <path d="M674.5,270.7v-1.8h5.4v1.8Z" fill="#005eaa"></path>
      <path d="M639.4,300v-1.3a3.2,3.2,0,0,1-2.9,1.5,3.9,3.9,0,0,1-3.9-2.6,6.1,6.1,0,0,1-.5-2.8,6.4,6.4,0,0,1,.5-2.8,3.6,3.6,0,0,1,1.5-1.9,3.9,3.9,0,0,1,2.3-.7,3.1,3.1,0,0,1,1.7.4,4,4,0,0,1,1.2,1v-5.1h1.8V300Zm-5.5-5.2a4.3,4.3,0,0,0,.8,3,2.5,2.5,0,0,0,2,1,2.2,2.2,0,0,0,1.9-1,3.8,3.8,0,0,0,.8-2.8,4.9,4.9,0,0,0-.8-3.2,2.6,2.6,0,0,0-2-1,2.4,2.4,0,0,0-1.9,1A4.3,4.3,0,0,0,633.9,294.8Z" fill="#005eaa"></path>
      <path d="M644.3,287.7v-2h1.8v2Zm0,12.3V289.6h1.8V300Z" fill="#005eaa"></path>
      <path d="M648.6,296.9l1.7-.3a2.4,2.4,0,0,0,.8,1.6,2.9,2.9,0,0,0,1.9.6,3,3,0,0,0,1.8-.5,1.4,1.4,0,0,0,.6-1.2,1,1,0,0,0-.6-.9,4.4,4.4,0,0,0-1.8-.6l-2.6-.8a4,4,0,0,1-1.2-1,3.3,3.3,0,0,1-.4-1.4,2.8,2.8,0,0,1,.4-1.3,3.9,3.9,0,0,1,.8-1l1.1-.5,1.6-.2a6.6,6.6,0,0,1,2.1.3,3.9,3.9,0,0,1,1.4,1,3.4,3.4,0,0,1,.6,1.6l-1.7.2a1.9,1.9,0,0,0-.7-1.2,2.5,2.5,0,0,0-1.6-.5,3.2,3.2,0,0,0-1.7.4,1.2,1.2,0,0,0-.6,1,.9.9,0,0,0,.3.6c.1.2.3.3.6.5l1.6.4,2.6.8a2,2,0,0,1,1.1.9,3,3,0,0,1,.5,1.6,3.3,3.3,0,0,1-.5,1.6,4.4,4.4,0,0,1-1.5,1.2,5.4,5.4,0,0,1-2.2.4,4.6,4.6,0,0,1-3.1-.8A4,4,0,0,1,648.6,296.9Z" fill="#005eaa"></path>
      <path d="M666.5,296.2l1.8.2a4.5,4.5,0,0,1-1.5,2.8,4.1,4.1,0,0,1-2.9,1,4.2,4.2,0,0,1-3.4-1.4,5.7,5.7,0,0,1-1.3-3.9,7,7,0,0,1,.6-3,3.5,3.5,0,0,1,1.7-1.9,5,5,0,0,1,2.4-.6,4.7,4.7,0,0,1,2.8.8,4.1,4.1,0,0,1,1.4,2.5l-1.7.2a2.7,2.7,0,0,0-.9-1.5,2,2,0,0,0-1.5-.6,2.7,2.7,0,0,0-2.1,1,4.1,4.1,0,0,0-.9,3,4.7,4.7,0,0,0,.8,3,2.6,2.6,0,0,0,2.1,1,2.4,2.4,0,0,0,1.7-.6A3.1,3.1,0,0,0,666.5,296.2Z" fill="#005eaa"></path>
      <path d="M670.3,287.7v-2H672v2Zm0,12.3V289.6H672V300Z" fill="#005eaa"></path>
      <path d="M675.2,304V289.6h1.6V291a3.7,3.7,0,0,1,1.3-1.2,3.1,3.1,0,0,1,1.7-.4,4,4,0,0,1,2.4.7,4.9,4.9,0,0,1,1.5,1.9,7.6,7.6,0,0,1,.5,2.7,6.5,6.5,0,0,1-.6,2.9,4,4,0,0,1-1.6,2,4.9,4.9,0,0,1-2.3.6,4.1,4.1,0,0,1-1.6-.3,3.6,3.6,0,0,1-1.1-1V304Zm1.6-9.1a4.6,4.6,0,0,0,.8,2.9,2.3,2.3,0,0,0,2,1,2.6,2.6,0,0,0,2-1,5.2,5.2,0,0,0,.8-3.1,4.6,4.6,0,0,0-.8-2.9,2.5,2.5,0,0,0-2-1,2.3,2.3,0,0,0-1.9,1A4.6,4.6,0,0,0,676.8,294.9Z" fill="#005eaa"></path>
      <path d="M686.8,300V285.7h1.7V300Z" fill="#005eaa"></path>
      <path d="M691.8,287.7v-2h1.7v2Zm0,12.3V289.6h1.7V300Z" fill="#005eaa"></path>
      <path d="M696.7,300V289.6h1.6v1.5a3.9,3.9,0,0,1,3.3-1.7,4.7,4.7,0,0,1,1.7.3l1.2.9a2.9,2.9,0,0,1,.5,1.3,7.2,7.2,0,0,1,.1,1.7V300h-1.7v-6.3a5.7,5.7,0,0,0-.2-1.6,1.8,1.8,0,0,0-.8-.9,2.1,2.1,0,0,0-1.2-.3,3.2,3.2,0,0,0-1.9.7c-.6.5-.8,1.4-.8,2.7V300Z" fill="#005eaa"></path>
      <path d="M715.1,298.7a5,5,0,0,1-1.9,1.2,5.8,5.8,0,0,1-1.9.3,3.4,3.4,0,0,1-2.6-.8,2.6,2.6,0,0,1-1-2.1,3.3,3.3,0,0,1,.4-1.4,2.2,2.2,0,0,1,.9-1,3.1,3.1,0,0,1,1.3-.6l1.5-.3a10.7,10.7,0,0,0,3.2-.6V293a2.2,2.2,0,0,0-.5-1.6,3,3,0,0,0-2-.6,3.1,3.1,0,0,0-1.9.5,2.2,2.2,0,0,0-.8,1.5l-1.8-.2a7.5,7.5,0,0,1,.8-1.8,3.7,3.7,0,0,1,1.6-1,5.3,5.3,0,0,1,2.3-.4,6.9,6.9,0,0,1,2.2.3,3.6,3.6,0,0,1,1.2.8,2.2,2.2,0,0,1,.5,1.2,6.2,6.2,0,0,1,.1,1.6v2.4c0,1.6.1,2.6.1,3.1a6.1,6.1,0,0,0,.5,1.2h-1.8A5,5,0,0,1,715.1,298.7Zm-.1-3.9a12.3,12.3,0,0,1-2.9.7l-1.5.3a1.1,1.1,0,0,0-.7.6,1.1,1.1,0,0,0-.3.8,1.7,1.7,0,0,0,.5,1.2,2.5,2.5,0,0,0,1.6.5,3.5,3.5,0,0,0,3-1.7,4.2,4.2,0,0,0,.3-1.8Z" fill="#005eaa"></path>
      <path d="M719.9,300V289.6h1.6v1.6a7.3,7.3,0,0,1,1.1-1.5,2.7,2.7,0,0,1,1.2-.3,3.2,3.2,0,0,1,1.8.6l-.6,1.6a2.4,2.4,0,0,0-1.3-.4,1.5,1.5,0,0,0-1.1.4,1.5,1.5,0,0,0-.6.9,6.6,6.6,0,0,0-.3,2.1V300Z" fill="#005eaa"></path>
      <path d="M727,304l-.2-1.7,1.1.2.9-.2.6-.5a9.3,9.3,0,0,0,.5-1.4l.2-.4-4-10.4H728l2.2,6a21.7,21.7,0,0,1,.7,2.4c.2-.8.5-1.6.7-2.3l2.3-6.1h1.7l-3.9,10.6a20.9,20.9,0,0,1-1,2.3,3.6,3.6,0,0,1-1.1,1.3,2.3,2.3,0,0,1-1.4.4Z" fill="#005eaa"></path>
    </g>
    <g>
      <path d="M819.8,107.9l1.8-.2a2.6,2.6,0,0,0,.6,1.8,2.7,2.7,0,0,0,1.4,1.1,5.1,5.1,0,0,0,2.2.4,5.8,5.8,0,0,0,1.9-.3,1.9,1.9,0,0,0,1.2-.9,1.6,1.6,0,0,0,.4-1.2,2.7,2.7,0,0,0-.3-1.2,3.2,3.2,0,0,0-1.3-.8l-2.6-.7a10.3,10.3,0,0,1-2.7-.9,5.3,5.3,0,0,1-1.6-1.3,4.1,4.1,0,0,1-.5-1.8,3.6,3.6,0,0,1,.6-2,3.8,3.8,0,0,1,1.8-1.5,7.6,7.6,0,0,1,2.7-.5,6.4,6.4,0,0,1,2.8.6A3.4,3.4,0,0,1,830,100a3.4,3.4,0,0,1,.7,2.2l-1.8.2a3,3,0,0,0-1-2.1,3.6,3.6,0,0,0-2.5-.7,4.4,4.4,0,0,0-2.5.6,2.3,2.3,0,0,0-.8,1.6,1.4,1.4,0,0,0,.6,1.2,6.1,6.1,0,0,0,2.9,1,15.9,15.9,0,0,1,3.1,1,3.5,3.5,0,0,1,1.9,1.4,3.7,3.7,0,0,1,.6,2.1,3.5,3.5,0,0,1-.7,2.1,3.8,3.8,0,0,1-1.9,1.6,5.9,5.9,0,0,1-2.7.5,8.2,8.2,0,0,1-3.3-.5,4.8,4.8,0,0,1-2-1.7A4.7,4.7,0,0,1,819.8,107.9Z" fill="#005eaa"></path>
      <path d="M833.9,116.5l-.2-1.7a1.8,1.8,0,0,0,1,.2l.9-.2.6-.5.5-1.3.2-.5-4-10.4h1.9l2.2,6a21.7,21.7,0,0,1,.7,2.4,15.5,15.5,0,0,1,.8-2.3l2.2-6.1h1.7l-3.9,10.6a20.9,20.9,0,0,1-1,2.3,3.6,3.6,0,0,1-1.1,1.3,2.3,2.3,0,0,1-1.4.4Z" fill="#005eaa"></path>
      <path d="M844.3,112.5V102.1h1.6v1.5a3.9,3.9,0,0,1,3.3-1.7,4.7,4.7,0,0,1,1.7.3,3,3,0,0,1,1.8,2.2c0,.3.1.9.1,1.7v6.4H851v-6.3a5.7,5.7,0,0,0-.2-1.6,1.6,1.6,0,0,0-.7-.9,2.8,2.8,0,0,0-1.3-.3,3.2,3.2,0,0,0-1.9.7,3.8,3.8,0,0,0-.8,2.7v5.7Z" fill="#005eaa"></path>
      <path d="M863,109.2l1.8.2a4.7,4.7,0,0,1-1.6,2.5,5.6,5.6,0,0,1-3,.8,4.5,4.5,0,0,1-3.6-1.4,5.3,5.3,0,0,1-1.3-3.9,5.9,5.9,0,0,1,1.3-4.1,4.8,4.8,0,0,1,3.5-1.4,4.6,4.6,0,0,1,3.4,1.4,5.7,5.7,0,0,1,1.3,4v.5h-7.7a4.1,4.1,0,0,0,1,2.6,2.7,2.7,0,0,0,2.1.9,3.1,3.1,0,0,0,1.7-.5A5,5,0,0,0,863,109.2Zm-5.8-2.9H863a3,3,0,0,0-.7-1.9,2.7,2.7,0,0,0-2.2-1.1,2.5,2.5,0,0,0-2,.9A2.6,2.6,0,0,0,857.2,106.3Z" fill="#005eaa"></path>
      <path d="M867.4,112.5V102.1h1.5v1.6a4.9,4.9,0,0,1,1.2-1.5,2,2,0,0,1,1.1-.3,3.2,3.2,0,0,1,1.8.6l-.6,1.6a2.2,2.2,0,0,0-1.3-.4,1.3,1.3,0,0,0-1,.4,1.6,1.6,0,0,0-.7.9,6.6,6.6,0,0,0-.3,2.1v5.4Z" fill="#005eaa"></path>
      <path d="M874.1,113.4l1.7.2a2.3,2.3,0,0,0,.6,1.2,3.5,3.5,0,0,0,1.8.5,3.3,3.3,0,0,0,1.9-.5,3.4,3.4,0,0,0,.9-1.4,12.3,12.3,0,0,0,.1-2.3,3.6,3.6,0,0,1-2.9,1.4,4,4,0,0,1-3.3-1.5,6.7,6.7,0,0,1-1.1-3.7,6.6,6.6,0,0,1,.5-2.8,4.3,4.3,0,0,1,1.6-1.9,3.6,3.6,0,0,1,2.4-.7,3.7,3.7,0,0,1,3,1.5v-1.3h1.6v9a8.6,8.6,0,0,1-.5,3.4,3.3,3.3,0,0,1-1.5,1.6,5.7,5.7,0,0,1-2.7.6,5.6,5.6,0,0,1-3-.8A3.1,3.1,0,0,1,874.1,113.4Zm1.5-6.3a4.2,4.2,0,0,0,.8,3,2.7,2.7,0,0,0,4,0,4,4,0,0,0,.9-2.9,4.2,4.2,0,0,0-.9-2.9,2.7,2.7,0,0,0-4,0A3.9,3.9,0,0,0,875.6,107.1Z" fill="#005eaa"></path>
      <path d="M886,100.2v-2h1.7v2Zm0,12.3V102.1h1.7v10.4Z" fill="#005eaa"></path>
      <path d="M897.9,109.2l1.8.2a4.7,4.7,0,0,1-1.6,2.5,5,5,0,0,1-2.9.8,4.3,4.3,0,0,1-3.6-1.4,5.3,5.3,0,0,1-1.4-3.9,6,6,0,0,1,1.4-4.1,4.7,4.7,0,0,1,3.5-1.4,4.8,4.8,0,0,1,3.4,1.4,6.2,6.2,0,0,1,1.3,4v.5H892a4.1,4.1,0,0,0,1,2.6,2.9,2.9,0,0,0,2.2.9,2.8,2.8,0,0,0,1.6-.5A3.8,3.8,0,0,0,897.9,109.2Zm-5.8-2.9h5.8a3.8,3.8,0,0,0-.6-1.9,2.8,2.8,0,0,0-2.2-1.1,2.9,2.9,0,0,0-2.1.9A3.4,3.4,0,0,0,892.1,106.3Z" fill="#005eaa"></path>
      <path d="M901.6,109.4l1.8-.3a2.1,2.1,0,0,0,.8,1.6,2.4,2.4,0,0,0,1.8.6,2.6,2.6,0,0,0,1.8-.5,1.4,1.4,0,0,0,.6-1.2.9.9,0,0,0-.5-.9,4.4,4.4,0,0,0-1.8-.6l-2.7-.8a3.6,3.6,0,0,1-1.1-1,2.3,2.3,0,0,1-.4-1.4,2.8,2.8,0,0,1,.3-1.3,3.1,3.1,0,0,1,2-1.5l1.5-.2a6.9,6.9,0,0,1,2.2.3,3.4,3.4,0,0,1,1.3,1,3.4,3.4,0,0,1,.6,1.6l-1.7.2a1.7,1.7,0,0,0-.6-1.2,2.8,2.8,0,0,0-1.6-.5,4,4,0,0,0-1.8.4,1.4,1.4,0,0,0-.5,1,1.4,1.4,0,0,0,.2.6l.7.5,1.6.4,2.6.8a2.1,2.1,0,0,1,1.1,1,2.4,2.4,0,0,1,.4,1.5,2.5,2.5,0,0,1-.5,1.6,3.1,3.1,0,0,1-1.5,1.2,6.1,6.1,0,0,1-5.2-.4A4.1,4.1,0,0,1,901.6,109.4Z" fill="#005eaa"></path>
      <path d="M822.1,137.5l-3.2-10.4h1.8l1.7,6,.6,2.2q0-.2.6-2.1l1.6-6.1H827l1.6,6,.5,2,.6-2,1.8-6h1.7l-3.3,10.4h-1.8l-1.7-6.2-.4-1.8-2.1,8Z" fill="#005eaa"></path>
      <path d="M835,125.2v-2h1.8v2Zm0,12.3V127.1h1.8v10.4Z" fill="#005eaa"></path>
      <path d="M843.7,135.9l.3,1.6h-1.4a2.6,2.6,0,0,1-1.4-.3,1.6,1.6,0,0,1-.8-.8,7.5,7.5,0,0,1-.2-2v-6h-1.3v-1.4h1.3v-2.5l1.7-1.1v3.6h1.8v1.4h-1.8v6.1a5.5,5.5,0,0,0,.1.9l.3.4h1.4Z" fill="#005eaa"></path>
      <path d="M845.8,137.5V123.2h1.8v5.1a4,4,0,0,1,3.1-1.4,3.3,3.3,0,0,1,2,.5,2.3,2.3,0,0,1,1.2,1.2,4.7,4.7,0,0,1,.4,2.3v6.6h-1.8v-6.6a3.3,3.3,0,0,0-.5-1.9,2.4,2.4,0,0,0-1.7-.6,2.3,2.3,0,0,0-1.4.4,2.6,2.6,0,0,0-1,1.1,5,5,0,0,0-.3,1.9v5.7Z" fill="#005eaa"></path>
      <path d="M857.4,125.2v-2h1.7v2Zm0,12.3V127.1h1.7v10.4Z" fill="#005eaa"></path>
      <path d="M862.2,137.5V127.1h1.6v1.5a3.7,3.7,0,0,1,3.3-1.7,4.7,4.7,0,0,1,1.7.3l1.2.9a5,5,0,0,1,.5,1.3,7.2,7.2,0,0,1,.1,1.7v6.4h-1.7v-6.3a5.7,5.7,0,0,0-.2-1.6,1.8,1.8,0,0,0-.8-.9,2.1,2.1,0,0,0-1.2-.3,3.2,3.2,0,0,0-1.9.7c-.6.5-.8,1.4-.8,2.7v5.7Z" fill="#005eaa"></path>
      <path d="M879.9,137.5V123.2h1.9l7.6,11.2V123.2h1.8v14.3h-2l-7.5-11.2v11.2Z" fill="#005eaa"></path>
      <path d="M895.6,137.5V123.2h9.7v1.7h-7.8v4.4h6.8V131h-6.8v6.5Z" fill="#005eaa"></path>
      <path d="M909,137.5V123.2h4.9l2.5.2a4.1,4.1,0,0,1,2.1,1,5.3,5.3,0,0,1,1.7,2.5,9,9,0,0,1,.6,3.4,8.8,8.8,0,0,1-.4,2.9,5.4,5.4,0,0,1-1,2,4,4,0,0,1-1.3,1.3,3.8,3.8,0,0,1-1.7.8l-2.3.2Zm1.9-1.7h3a6.1,6.1,0,0,0,2.2-.3,2.3,2.3,0,0,0,1.3-.7,4,4,0,0,0,1.1-1.8,11.1,11.1,0,0,0,.4-2.8,6.3,6.3,0,0,0-.8-3.4,3.4,3.4,0,0,0-1.8-1.6,7,7,0,0,0-2.4-.3h-3Z" fill="#005eaa"></path>
      <path d="M924.9,137.5V123.2h1.9v14.3Z" fill="#005eaa"></path>
    </g>
    <path d="M775,450v50H62.5V450H775m2-2H60.5v54H777V448Z" fill="#005eaa"></path>
    <g>
      <path d="M79,481.5l-3.8-14.3h2l2.2,9.4.6,2.9a21.1,21.1,0,0,1,.6-2.6l2.7-9.7h2.3l2.1,7.2a36.1,36.1,0,0,1,1.1,5.1c.2-.9.4-1.9.7-3.1l2.2-9.2h2l-4,14.3H87.9l-3-10.9c-.3-.9-.4-1.5-.5-1.7s-.3,1.2-.4,1.7l-3,10.9Z" fill="#fff"></path>
      <path d="M95,476.3a5.4,5.4,0,0,1,1.6-4.3,5.2,5.2,0,0,1,3.2-1.1,4.7,4.7,0,0,1,3.5,1.4,5.3,5.3,0,0,1,1.4,3.9,6.6,6.6,0,0,1-.6,3.1,3.9,3.9,0,0,1-1.8,1.8,5.1,5.1,0,0,1-2.5.6,4.5,4.5,0,0,1-3.5-1.4A5.4,5.4,0,0,1,95,476.3Zm1.8,0a4.5,4.5,0,0,0,.9,3,2.5,2.5,0,0,0,2.1,1,2.7,2.7,0,0,0,2.2-1,5.5,5.5,0,0,0,0-6,2.9,2.9,0,0,0-2.2-.9,2.7,2.7,0,0,0-2.1.9A4.5,4.5,0,0,0,96.8,476.3Z" fill="#fff"></path>
      <path d="M107.5,481.5V471.1h1.6v1.6a7.3,7.3,0,0,1,1.1-1.5,2.7,2.7,0,0,1,1.2-.3,3.2,3.2,0,0,1,1.8.6l-.6,1.6a2.4,2.4,0,0,0-1.3-.4,1.5,1.5,0,0,0-1.1.4,1.5,1.5,0,0,0-.6.9,6.6,6.6,0,0,0-.3,2.1v5.4Z" fill="#fff"></path>
      <path d="M115,481.5V467.2h1.8v8.1l4.1-4.2h2.3l-3.9,3.9,4.3,6.5h-2.1l-3.5-5.3-1.2,1.2v4.1Z" fill="#fff"></path>
      <path d="M126.2,481.5v-9h-1.5v-1.4h1.5V470a4.9,4.9,0,0,1,.2-1.5,2,2,0,0,1,.9-1.1,3,3,0,0,1,1.8-.5l1.6.2-.2,1.5h-1.1a1.6,1.6,0,0,0-1.1.3,1.9,1.9,0,0,0-.3,1.3v.9h2v1.4h-2v9Z" fill="#fff"></path>
      <path d="M132.1,481.5V467.2h1.8v14.3Z" fill="#fff"></path>
      <path d="M136.8,476.3a5.4,5.4,0,0,1,1.6-4.3,5,5,0,0,1,3.2-1.1,4.7,4.7,0,0,1,3.5,1.4,5.3,5.3,0,0,1,1.4,3.9,6.6,6.6,0,0,1-.6,3.1,3.9,3.9,0,0,1-1.8,1.8,5.1,5.1,0,0,1-2.5.6,4.5,4.5,0,0,1-3.5-1.4A5.4,5.4,0,0,1,136.8,476.3Zm1.8,0a5.1,5.1,0,0,0,.8,3,2.9,2.9,0,0,0,4.4,0,5.4,5.4,0,0,0,0-6,3.1,3.1,0,0,0-4.4,0A5.1,5.1,0,0,0,138.6,476.3Z" fill="#fff"></path>
      <path d="M151.3,481.5l-3.2-10.4h1.8l1.6,6,.7,2.2c0-.1.2-.8.5-2.1l1.6-6.1h1.9l1.5,6,.5,2,.6-2,1.8-6h1.7l-3.2,10.4h-1.9l-1.6-6.2-.4-1.8-2.1,8Z" fill="#fff"></path>
      <path d="M163.9,478.4l1.7-.3a2.4,2.4,0,0,0,.8,1.6,2.9,2.9,0,0,0,1.9.6,3,3,0,0,0,1.8-.5,1.4,1.4,0,0,0,.6-1.2,1.1,1.1,0,0,0-.5-.9,6,6,0,0,0-1.8-.6l-2.7-.8a2.7,2.7,0,0,1-1.1-1,2.3,2.3,0,0,1-.4-1.4,2.8,2.8,0,0,1,.3-1.3,2.8,2.8,0,0,1,.9-1,2.3,2.3,0,0,1,1.1-.5l1.5-.2a6.6,6.6,0,0,1,2.1.3,3.2,3.2,0,0,1,1.4,1,3.4,3.4,0,0,1,.6,1.6l-1.7.2a1.9,1.9,0,0,0-.7-1.2,2.5,2.5,0,0,0-1.6-.5,3.2,3.2,0,0,0-1.7.4,1.1,1.1,0,0,0-.5,1,.7.7,0,0,0,.2.6c.1.2.4.3.7.5l1.5.4,2.6.8a2.3,2.3,0,0,1,1.2,1,2.4,2.4,0,0,1,.4,1.5,3.3,3.3,0,0,1-.5,1.6,4.4,4.4,0,0,1-1.5,1.2,5.1,5.1,0,0,1-2.2.4,4.8,4.8,0,0,1-3.1-.8A4,4,0,0,1,163.9,478.4Z" fill="#fff"></path>
    </g>
    <path d="M775,387.5v50H62.5v-50H775m2-2H60.5v54H777v-54Z" fill="#005eaa"></path>
    <path d="M775,325v50H62.5V325H775m2-2H60.5v54H777V323Z" fill="#005eaa"></path>
    <g>
      <path d="M76.5,419V404.7h2.8l3.4,10.1c.3,1,.6,1.7.7,2.1l.8-2.3,3.4-9.9h2.5V419H88.3V407l-4.1,12H82.5l-4.2-12.2V419Z" fill="#fff"></path>
      <path d="M100.5,417.7a4.7,4.7,0,0,1-1.8,1.2,6.4,6.4,0,0,1-2,.3,3.5,3.5,0,0,1-2.6-.8,2.9,2.9,0,0,1-.9-2.1,3.2,3.2,0,0,1,.3-1.4,4.5,4.5,0,0,1,.9-1,3.1,3.1,0,0,1,1.3-.6l1.6-.3a9.9,9.9,0,0,0,3.1-.6V412a2.2,2.2,0,0,0-.5-1.6,2.8,2.8,0,0,0-2-.5,3,3,0,0,0-1.8.4,2.7,2.7,0,0,0-.9,1.5l-1.7-.2a3.7,3.7,0,0,1,.8-1.8,2.8,2.8,0,0,1,1.5-1,6.1,6.1,0,0,1,2.4-.4,6.2,6.2,0,0,1,2.1.3,2.7,2.7,0,0,1,1.8,2c0,.3.1.8.1,1.6v2.4a22,22,0,0,0,.1,3.1,5.6,5.6,0,0,0,.4,1.2h-1.8A5,5,0,0,1,100.5,417.7Zm-.1-3.9a11.1,11.1,0,0,1-2.9.7l-1.5.3a1.3,1.3,0,0,0-.7.6,1.1,1.1,0,0,0-.2.8,1.3,1.3,0,0,0,.5,1.2,2.3,2.3,0,0,0,1.5.5,4.1,4.1,0,0,0,1.9-.5,2.5,2.5,0,0,0,1.1-1.2,4.2,4.2,0,0,0,.3-1.8Z" fill="#fff"></path>
      <path d="M109.5,417.4l.3,1.6h-1.3a2.8,2.8,0,0,1-1.5-.3,1.6,1.6,0,0,1-.8-.8,7.5,7.5,0,0,1-.2-2v-6h-1.3v-1.4H106v-2.5l1.8-1.1v3.6h1.7V410h-1.7v6.1c0,.5,0,.8.1.9s.1.3.3.4h1.3Z" fill="#fff"></path>
      <path d="M112.1,419V404.7h1.7v5.1a4.1,4.1,0,0,1,3.1-1.4,4,4,0,0,1,2,.4,2.9,2.9,0,0,1,1.2,1.3,4.7,4.7,0,0,1,.4,2.3V419h-1.8v-6.6a2.6,2.6,0,0,0-.5-1.9,2.1,2.1,0,0,0-1.6-.6,2.4,2.4,0,0,0-1.5.4,2.6,2.6,0,0,0-1,1.1,5,5,0,0,0-.3,1.9V419Z" fill="#fff"></path>
      <path d="M131.1,415.7l1.8.2a4.7,4.7,0,0,1-1.6,2.5,5.6,5.6,0,0,1-3,.8,4.5,4.5,0,0,1-3.6-1.4,5.3,5.3,0,0,1-1.3-3.9,5.9,5.9,0,0,1,1.3-4.1,4.8,4.8,0,0,1,3.5-1.4,4.4,4.4,0,0,1,3.4,1.4,5.7,5.7,0,0,1,1.4,4,1.1,1.1,0,0,1-.1.5h-7.7a4.1,4.1,0,0,0,1,2.6,2.9,2.9,0,0,0,2.1.9,3.1,3.1,0,0,0,1.7-.5A3.8,3.8,0,0,0,131.1,415.7Zm-5.8-2.9h5.8a3,3,0,0,0-.7-1.9,2.5,2.5,0,0,0-2.1-1.1,2.9,2.9,0,0,0-2.1.9A3.4,3.4,0,0,0,125.3,412.8Z" fill="#fff"></path>
      <path d="M135.9,419V408.6h1.6v1.5a3,3,0,0,1,1.3-1.2,2.7,2.7,0,0,1,1.8-.5,3.6,3.6,0,0,1,1.9.5,2.8,2.8,0,0,1,1.1,1.3,3.6,3.6,0,0,1,3.2-1.8,2.9,2.9,0,0,1,2.3.9,3.3,3.3,0,0,1,.9,2.6V419h-1.8v-6.5a3.7,3.7,0,0,0-.2-1.6,1.3,1.3,0,0,0-.6-.7,1.7,1.7,0,0,0-1-.3,2.9,2.9,0,0,0-1.9.7,3.8,3.8,0,0,0-.7,2.4v6h-1.7v-6.7a3,3,0,0,0-.5-1.8c-.2-.4-.7-.6-1.4-.6a2,2,0,0,0-1.3.4,2.3,2.3,0,0,0-1,1.2,10.6,10.6,0,0,0-.2,2.1V419Z" fill="#fff"></path>
      <path d="M160.1,417.7a4.7,4.7,0,0,1-1.8,1.2,6.9,6.9,0,0,1-2,.3,3.5,3.5,0,0,1-2.6-.8,2.9,2.9,0,0,1-.9-2.1,3.2,3.2,0,0,1,.3-1.4,2.2,2.2,0,0,1,.9-1,3.1,3.1,0,0,1,1.3-.6l1.6-.3a9.9,9.9,0,0,0,3.1-.6V412a2.2,2.2,0,0,0-.5-1.6,4.3,4.3,0,0,0-3.8-.1,2.7,2.7,0,0,0-.9,1.5l-1.7-.2a4.8,4.8,0,0,1,.7-1.8,3.7,3.7,0,0,1,1.6-1,5.9,5.9,0,0,1,2.3-.4,6.5,6.5,0,0,1,2.2.3,2.7,2.7,0,0,1,1.8,2c0,.3.1.8.1,1.6v2.4a22,22,0,0,0,.1,3.1,2.8,2.8,0,0,0,.4,1.2h-1.8A5,5,0,0,1,160.1,417.7Zm-.1-3.9a12.3,12.3,0,0,1-2.9.7l-1.5.3a1.3,1.3,0,0,0-.7.6,1.1,1.1,0,0,0-.3.8,1.4,1.4,0,0,0,.6,1.2,2.1,2.1,0,0,0,1.5.5,3.5,3.5,0,0,0,1.8-.5,2.3,2.3,0,0,0,1.2-1.2,4.2,4.2,0,0,0,.3-1.8Z" fill="#fff"></path>
      <path d="M169.1,417.4l.3,1.6h-1.3a2.8,2.8,0,0,1-1.5-.3,1.6,1.6,0,0,1-.8-.8,7.5,7.5,0,0,1-.2-2v-6h-1.3v-1.4h1.3v-2.5l1.8-1.1v3.6h1.7V410h-1.7v7a.8.8,0,0,0,.4.4h1.3Z" fill="#fff"></path>
      <path d="M171.7,406.7v-2h1.7v2Zm0,12.3V408.6h1.7V419Z" fill="#fff"></path>
      <path d="M183.7,415.2l1.7.2a4.3,4.3,0,0,1-1.5,2.8,3.9,3.9,0,0,1-2.8,1,4.3,4.3,0,0,1-3.5-1.4,5.7,5.7,0,0,1-1.2-3.9,7,7,0,0,1,.5-3,3.9,3.9,0,0,1,1.7-1.9,5.4,5.4,0,0,1,2.5-.6,4,4,0,0,1,2.7.9,3.3,3.3,0,0,1,1.4,2.4l-1.7.2a2.3,2.3,0,0,0-.9-1.5,2,2,0,0,0-1.5-.6,2.8,2.8,0,0,0-2.1,1,6,6,0,0,0,0,6,2.3,2.3,0,0,0,2,1,2.8,2.8,0,0,0,1.8-.6A4.6,4.6,0,0,0,183.7,415.2Z" fill="#fff"></path>
      <path d="M194.5,417.7a5.9,5.9,0,0,1-1.9,1.2,6.4,6.4,0,0,1-2,.3,3.5,3.5,0,0,1-2.6-.8,2.9,2.9,0,0,1-.9-2.1,3.2,3.2,0,0,1,.3-1.4,4.5,4.5,0,0,1,.9-1,3.1,3.1,0,0,1,1.3-.6l1.6-.3a9.9,9.9,0,0,0,3.1-.6V412c0-.8-.1-1.3-.5-1.6a2.8,2.8,0,0,0-2-.5,3,3,0,0,0-1.8.4,2.7,2.7,0,0,0-.9,1.5l-1.7-.2a4.9,4.9,0,0,1,.8-1.8,2.8,2.8,0,0,1,1.5-1,6.1,6.1,0,0,1,2.4-.4,5.8,5.8,0,0,1,2.1.3,3.2,3.2,0,0,1,1.3.8,3.3,3.3,0,0,1,.5,1.2,6.2,6.2,0,0,1,.1,1.6v2.4a22,22,0,0,0,.1,3.1,5.6,5.6,0,0,0,.4,1.2h-1.8A2.8,2.8,0,0,1,194.5,417.7Zm-.2-3.9a11.1,11.1,0,0,1-2.9.7l-1.5.3a1.3,1.3,0,0,0-.7.6,1.1,1.1,0,0,0-.2.8,1.3,1.3,0,0,0,.5,1.2,2.5,2.5,0,0,0,1.6.5,4.1,4.1,0,0,0,1.8-.5,2.5,2.5,0,0,0,1.1-1.2,4.2,4.2,0,0,0,.3-1.8Z" fill="#fff"></path>
      <path d="M199.6,419V404.7h1.7V419Z" fill="#fff"></path>
      <path d="M211.4,419V404.7h2.8l3.4,10.1c.3,1,.6,1.7.7,2.1l.8-2.3,3.4-9.9H225V419h-1.8V407l-4.1,12h-1.8l-4.1-12.2V419Z" fill="#fff"></path>
      <path d="M228,413.8a5.8,5.8,0,0,1,1.6-4.3,5.2,5.2,0,0,1,3.3-1.1,4.8,4.8,0,0,1,3.5,1.4,5.3,5.3,0,0,1,1.3,3.9,6.6,6.6,0,0,1-.6,3.1,4.2,4.2,0,0,1-1.7,1.8,5.4,5.4,0,0,1-2.5.6,4.3,4.3,0,0,1-3.5-1.4A5.4,5.4,0,0,1,228,413.8Zm1.8,0a4.5,4.5,0,0,0,.9,3,2.9,2.9,0,0,0,4.4,0,6,6,0,0,0,0-6,3.1,3.1,0,0,0-2.2-.9,2.9,2.9,0,0,0-2.2.9A4.5,4.5,0,0,0,229.8,413.8Z" fill="#fff"></path>
      <path d="M247.3,419v-1.3a3.2,3.2,0,0,1-2.9,1.5,3.9,3.9,0,0,1-3.9-2.6,6.1,6.1,0,0,1-.5-2.8,6.6,6.6,0,0,1,.5-2.8,3.6,3.6,0,0,1,1.5-1.9,3.9,3.9,0,0,1,2.3-.7,3.1,3.1,0,0,1,1.7.4,4,4,0,0,1,1.2,1v-5.1H249V419Zm-5.5-5.2a4.3,4.3,0,0,0,.8,3,2.5,2.5,0,0,0,2,1,2.2,2.2,0,0,0,1.9-1,3.8,3.8,0,0,0,.9-2.8,4.9,4.9,0,0,0-.9-3.2,2.5,2.5,0,0,0-2-.9,2.3,2.3,0,0,0-1.9.9A4.3,4.3,0,0,0,241.8,413.8Z" fill="#fff"></path>
      <path d="M259.6,415.7l1.8.2a4.7,4.7,0,0,1-1.6,2.5,5,5,0,0,1-2.9.8,4.5,4.5,0,0,1-3.6-1.4,5.3,5.3,0,0,1-1.4-3.9,6,6,0,0,1,1.4-4.1,4.7,4.7,0,0,1,3.5-1.4,4.6,4.6,0,0,1,3.4,1.4,5.7,5.7,0,0,1,1.3,4v.5h-7.8a4.1,4.1,0,0,0,1,2.6,2.9,2.9,0,0,0,2.2.9,2.8,2.8,0,0,0,1.6-.5A3.8,3.8,0,0,0,259.6,415.7Zm-5.8-2.9h5.8a3.1,3.1,0,0,0-.6-1.9,2.8,2.8,0,0,0-2.2-1.1,2.5,2.5,0,0,0-2,.9A3,3,0,0,0,253.8,412.8Z" fill="#fff"></path>
      <path d="M264.4,419V404.7h1.8V419Z" fill="#fff"></path>
      <path d="M269,415.9l1.7-.3a2.4,2.4,0,0,0,.8,1.6,2.9,2.9,0,0,0,1.9.6,3,3,0,0,0,1.8-.5,1.4,1.4,0,0,0,.6-1.2,1.1,1.1,0,0,0-.5-.9l-1.8-.6-2.7-.8a2.7,2.7,0,0,1-1.1-1,2.3,2.3,0,0,1-.4-1.4,2.8,2.8,0,0,1,.3-1.3,2.8,2.8,0,0,1,.9-1,2.3,2.3,0,0,1,1.1-.5l1.5-.2a6.6,6.6,0,0,1,2.1.3,3.2,3.2,0,0,1,1.4,1,3.4,3.4,0,0,1,.6,1.6l-1.7.2a1.9,1.9,0,0,0-.7-1.2,2.5,2.5,0,0,0-1.6-.5,3.2,3.2,0,0,0-1.7.4,1.1,1.1,0,0,0-.5,1,.7.7,0,0,0,.2.6c.1.2.4.3.7.5l1.5.4a16.8,16.8,0,0,1,2.6.8,2.3,2.3,0,0,1,1.2,1,2.4,2.4,0,0,1,.4,1.5,3.3,3.3,0,0,1-.5,1.6,4.4,4.4,0,0,1-1.5,1.2,5.1,5.1,0,0,1-2.2.4,4.8,4.8,0,0,1-3.1-.8A4,4,0,0,1,269,415.9Z" fill="#fff"></path>
    </g>
    <g>
      <path d="M75,356.5l5.5-14.3h2l5.9,14.3H86.2l-1.7-4.3H78.6L77,356.5Zm4.1-5.9H84l-1.5-3.9c-.5-1.2-.8-2.2-1.1-3a13.4,13.4,0,0,1-.7,2.7Z" fill="#fff"></path>
      <path d="M90.4,356.5V342.2h1.8v14.3Z" fill="#fff"></path>
      <path d="M95.4,357.4l1.7.2a2.3,2.3,0,0,0,.6,1.2,3,3,0,0,0,1.8.5,3.6,3.6,0,0,0,1.9-.5,3.4,3.4,0,0,0,.9-1.4c0-.4.1-1.1.1-2.3a3.7,3.7,0,0,1-2.9,1.4,4,4,0,0,1-3.3-1.5,6.1,6.1,0,0,1-1.2-3.7,6.7,6.7,0,0,1,.6-2.8,3.6,3.6,0,0,1,1.5-1.9,4,4,0,0,1,2.4-.7,3.6,3.6,0,0,1,3,1.5v-1.3h1.7v9a8.6,8.6,0,0,1-.5,3.4,4.1,4.1,0,0,1-1.6,1.6,5.3,5.3,0,0,1-2.6.6,5.1,5.1,0,0,1-3-.8A2.8,2.8,0,0,1,95.4,357.4Zm1.4-6.3a4.7,4.7,0,0,0,.8,3,2.9,2.9,0,0,0,2.1.9,2.5,2.5,0,0,0,2-.9,4,4,0,0,0,.8-2.9,4.8,4.8,0,0,0-.8-2.9,2.9,2.9,0,0,0-2.1-.9,2.5,2.5,0,0,0-1.9.9A3.9,3.9,0,0,0,96.8,351.1Z" fill="#fff"></path>
      <path d="M107,351.3a5.4,5.4,0,0,1,1.6-4.3,5.2,5.2,0,0,1,3.2-1.1,4.7,4.7,0,0,1,3.5,1.4,5.3,5.3,0,0,1,1.4,3.9,6.6,6.6,0,0,1-.6,3.1,3.9,3.9,0,0,1-1.8,1.8,5.1,5.1,0,0,1-2.5.6,4.5,4.5,0,0,1-3.5-1.4A5.4,5.4,0,0,1,107,351.3Zm1.8,0a5.1,5.1,0,0,0,.8,3,2.8,2.8,0,0,0,2.2,1,2.7,2.7,0,0,0,2.2-1,5.5,5.5,0,0,0,0-6,2.9,2.9,0,0,0-2.2-.9,3.1,3.1,0,0,0-2.2.9A5.1,5.1,0,0,0,108.8,351.3Z" fill="#fff"></path>
      <path d="M119.5,356.5V346.1h1.6v1.6a7.3,7.3,0,0,1,1.1-1.5,2.4,2.4,0,0,1,1.2-.3,3.5,3.5,0,0,1,1.8.6l-.6,1.6a2.4,2.4,0,0,0-1.3-.4,1.5,1.5,0,0,0-1.1.4,1.5,1.5,0,0,0-.6.9,6.6,6.6,0,0,0-.3,2.1v5.4Z" fill="#fff"></path>
      <path d="M127,344.2v-2h1.8v2Zm0,12.3V346.1h1.8v10.4Z" fill="#fff"></path>
      <path d="M136.1,354.9l.2,1.6H135a3.3,3.3,0,0,1-1.5-.3,1.4,1.4,0,0,1-.7-.8,4.8,4.8,0,0,1-.2-2v-6h-1.3v-1.4h1.3v-2.5l1.7-1.1v3.6h1.8v1.4h-1.8v6.1a5.5,5.5,0,0,0,.1.9l.3.4h1.4Z" fill="#fff"></path>
      <path d="M138.6,356.5V342.2h1.8v5.1a4,4,0,0,1,3.1-1.4,4.5,4.5,0,0,1,2,.4,4.9,4.9,0,0,1,1.2,1.3,6.3,6.3,0,0,1,.4,2.3v6.6h-1.8v-6.6a2.5,2.5,0,0,0-.6-1.9,2.1,2.1,0,0,0-1.6-.6,2.8,2.8,0,0,0-1.5.4,3.1,3.1,0,0,0-.9,1.1,5,5,0,0,0-.3,1.9v5.7Z" fill="#fff"></path>
      <path d="M150.5,356.5V346.1h1.6v1.5a3.7,3.7,0,0,1,1.3-1.2,2.9,2.9,0,0,1,1.8-.5,3.6,3.6,0,0,1,1.9.5,2.4,2.4,0,0,1,1.1,1.3,3.7,3.7,0,0,1,3.2-1.8,3.2,3.2,0,0,1,2.4.9,3.7,3.7,0,0,1,.8,2.6v7.1h-1.8V350a7.1,7.1,0,0,0-.1-1.6,1.6,1.6,0,0,0-.7-.7,1.7,1.7,0,0,0-1-.3,2.9,2.9,0,0,0-1.8.7,3.3,3.3,0,0,0-.7,2.4v6h-1.8v-6.7a4,4,0,0,0-.4-1.8,1.7,1.7,0,0,0-1.4-.6,2.3,2.3,0,0,0-1.4.4,2.7,2.7,0,0,0-.9,1.2,5.8,5.8,0,0,0-.3,2.1v5.4Z" fill="#fff"></path>
      <path d="M167.3,353.4l1.7-.3a2.4,2.4,0,0,0,.8,1.6,2.9,2.9,0,0,0,1.9.6,3,3,0,0,0,1.8-.5,1.4,1.4,0,0,0,.6-1.2,1.1,1.1,0,0,0-.5-.9,6,6,0,0,0-1.8-.6l-2.7-.8a2.7,2.7,0,0,1-1.1-1,2.3,2.3,0,0,1-.4-1.4,2.8,2.8,0,0,1,.3-1.3,2.8,2.8,0,0,1,.9-1,2.3,2.3,0,0,1,1.1-.5l1.5-.2a6.6,6.6,0,0,1,2.1.3,3.2,3.2,0,0,1,1.4,1,3.4,3.4,0,0,1,.6,1.6l-1.7.2a1.9,1.9,0,0,0-.7-1.2,2.5,2.5,0,0,0-1.6-.5,3.2,3.2,0,0,0-1.7.4,1.4,1.4,0,0,0-.5,1,1.4,1.4,0,0,0,.2.6c.1.2.4.3.7.5l1.5.4a16.8,16.8,0,0,1,2.6.8,2.3,2.3,0,0,1,1.2,1,2.4,2.4,0,0,1,.4,1.5,3.3,3.3,0,0,1-.5,1.6,3.6,3.6,0,0,1-1.5,1.2,5.1,5.1,0,0,1-2.2.4,4.8,4.8,0,0,1-3.1-.8A4,4,0,0,1,167.3,353.4Z" fill="#fff"></path>
    </g>
  </g>
  <g id="a4fc8d1c-553f-4357-9b19-5df6a100c571" data-name="Icons">
    <polyline points="62.5 25 112.5 25 112.5 75 62.5 75" fill="#fff"></polyline>
    <polyline points="62.5 75 112.5 75 112.5 25 62.5 25" fill="#99bedd"></polyline>
    <g id="b9a14d31-4a84-4057-8280-a6f3925e3e32" data-name="&lt;2.1_S_Gruppe&gt;">
      <rect x="250" y="200" width="50" height="50" fill="none"></rect>
      <g>
        <rect id="edaab865-c1e6-4412-bccd-8c1eb72e7e08" data-name="SVGID" x="300" y="200" width="50" height="50" fill="#d0662b"></rect>
        <g clip-path="url(#eee929a8-9235-4d67-975a-0cfeb5fdefe2)">
          <path d="M350,200l-3.7,3.7-4.1,4.1c-1.6.3-3.3,6.7-5.2,5.1s-3.8,2.7-5.8,5.8c-1,.2-2,1.2-3.1,2.5s-2.1,3.8-3.1,3.6a27.5,27.5,0,0,0-3.1,3.5c-1.1,13.2-2.1,1.9-3.1,2.7s-4,3.9-5.8,5.8l-13,12.8M340,200l-1.1,1.1c-.7.7-1.7,3.9-3,3-1.2,4-2.7,1.9-4.4,4.3s-3.5,6.7-5.3,5.4c-1.9,2.3-3.9,1.9-5.9,5.7-1.9,1.2-3.9,4.6-5.8,5.8l-5.3,5.3-8.5,8.5-.7.6M330,200l-1.3,1.3c-.8.2-2,2.7-3.4,3.4s-3,1-4.8,4.7-3.6,3.8-5.5,5.5-3.7,3.7-5.5,5.5l-9.5,9.4m0-9.9L320,200m-20,9.9,10-9.9m0,49.6,4.1-4,4.4-4.4c1.7-2.3,3.5,3.1,5.4-5.3.9,3.2,1.9-6.2,2.8-2.9,1-5.6,2,4.5,3-2.9,1-5.1,1.9.2,2.9-2.6,1,1.8,2-3.7,2.9-3.2a24.3,24.3,0,0,0,2.8-2,11.4,11.4,0,0,0,2.5-3.3c1.7-5.9,3.2-.7,4.5-4.4l2.9-3,1.1-1.1.7-.6m-30,39.7,1.3-1.2c.8-.9,2-1.8,3.4-3.4,1.4,3.5,3-7.5,4.8-4.8s3.6-11.5,5.5-5.5c1.9.5,3.8-1.5,5.5-5.4l4.8-4.8,4.7-4.6m-20,29.7c0,.7.6.7,1.5-1.4.9,2.4,2.2-1.4,3.7-3.7,1.5-.8,3.1-4.3,4.8-4.8s3.3,2.1,4.8-4.8l3.7-3.7,1.5-1.4m0,9.9-10,9.9" fill="none" stroke="#ecc2aa" stroke-linejoin="round" stroke-width="1.18"></path>
        </g>
      </g>
      <g>
        <path d="M274,207.2v-2.3h10.3v2.3h-3.8v10.3h-2.7V207.2Z" fill="#1d1d1b"></path>
        <path d="M290.4,204.9l4.7,12.6h-2.9l-.9-2.8h-4.7l-1,2.8h-2.8l4.8-12.6Zm.2,7.7L289,208h-.1l-1.6,4.6Z" fill="#1d1d1b"></path>
      </g>
      <path d="M305.6,210.6a7.6,7.6,0,0,1,1.7-3.2,8.8,8.8,0,0,1,2.8-2.2,10.2,10.2,0,0,1,4-.7,11.4,11.4,0,0,1,3.3.5,10,10,0,0,1,2.7,1.5A7.9,7.9,0,0,1,322,209a7.2,7.2,0,0,1,.7,3.3,8.1,8.1,0,0,1-.6,3.3,7.8,7.8,0,0,1-1.6,2.4,14.5,14.5,0,0,1-2.3,1.9l-2.5,1.7a14.4,14.4,0,0,0-2.5,1.8,11.5,11.5,0,0,0-2.2,2.2h11.9V230H304.5a10.8,10.8,0,0,1,.6-3.8,10.5,10.5,0,0,1,1.7-2.9,18.4,18.4,0,0,1,2.5-2.3l3.1-2.2,1.7-1.2a5.5,5.5,0,0,0,1.7-1.3,5.1,5.1,0,0,0,1.3-1.6,3.3,3.3,0,0,0,.5-2,3.6,3.6,0,0,0-1-2.8,3.7,3.7,0,0,0-2.7-1.1,2.9,2.9,0,0,0-1.9.6,3.7,3.7,0,0,0-1.2,1.3,6.2,6.2,0,0,0-.7,1.9,13.6,13.6,0,0,0-.2,2h-4.8A10.5,10.5,0,0,1,305.6,210.6Z" fill="#fff"></path>
    </g>
    <g id="bc204ffe-d4c6-4015-b893-9dfb22750edf" data-name="&lt;1.1_S_Gruppe&gt;">
      <rect x="62.5" y="200" width="50" height="50" fill="none"></rect>
      <g>
        <rect id="f10be2e6-3605-4eb2-9bdd-4aee9c20f82b" data-name="SVGID" x="112.5" y="200" width="50" height="50" fill="#d0662b"></rect>
        <g clip-path="url(#a3c0e08c-76e9-4b01-be4b-9d33cdfd7c0e)">
          <path d="M162.5,200l-50,50m40-50-39.3,39.4-.7.6m30-40-30,30m0-10,20-20m-20,10,10-10m0,50,39.3-39.4.7-.6m-30,40,30-30m-20,30,20-20m0,10-10,10" fill="#1d1d1b" stroke="#ecc2aa" stroke-miterlimit="10" stroke-width="1.18"></path>
        </g>
      </g>
      <g>
        <path d="M86.5,207.2v-2.3H96.8v2.3H93v10.3H90.3V207.2Z" fill="#1d1d1b"></path>
        <path d="M102.9,204.9l4.7,12.6h-2.9l-.9-2.8H99.1l-1,2.8H95.3l4.8-12.6Zm.2,7.7-1.6-4.6h-.1l-1.6,4.6Z" fill="#1d1d1b"></path>
      </g>
      <path d="M123.8,230V213.8h-6.3V210l2.6-.2a8.5,8.5,0,0,0,2.2-.9,6.1,6.1,0,0,0,1.7-1.5,8.5,8.5,0,0,0,.9-2.4h4v25Z" fill="#fff"></path>
    </g>
    <g id="a0e9e70c-d041-4f44-94cc-9081dc984ac0" data-name="&lt;3.1_S_Gruppe&gt;">
      <g>
        <rect id="fc956514-b95c-4d9b-88a5-6d0b3d0b0700" data-name="SVGID" x="490" y="200" width="50" height="50" fill="#d0662b"></rect>
        <g clip-path="url(#b951e80f-a647-4a4f-aee5-00201ee8b19a)">
          <path d="M540,210.1,490.1,250m39.9,0,10-10m-20-39.9-10,0-13,0-7,11.5m47.1-11.5L503.7,250m2.5,0L540,219.1M516,250l24-21.9M516.5,250,540,240m-45.2,10,39.3-50m-10.4.1-33.6,28.4m24.6-28.4L490,243m11-42.9-11,14.5" fill="none" stroke="#ecc2aa" stroke-miterlimit="10" stroke-width="1.18"></path>
        </g>
      </g>
      <rect x="440" y="200" width="50" height="50" fill="none"></rect>
      <g>
        <path d="M464,207.2v-2.3h10.3v2.3h-3.8v10.3h-2.7V207.2Z" fill="#1d1d1b"></path>
        <path d="M480.4,204.9l4.7,12.6h-2.9l-.9-2.8h-4.7l-1,2.8h-2.8l4.8-12.6Zm.2,7.7L479,208h0l-1.7,4.6Z" fill="#1d1d1b"></path>
      </g>
      <path d="M503.8,215.1l1.7-.4a3.2,3.2,0,0,0,1.3-1,2.3,2.3,0,0,0,.5-1.7,3,3,0,0,0-1-2.5,3.9,3.9,0,0,0-2.5-.8,3.4,3.4,0,0,0-2.9,1.2,4.9,4.9,0,0,0-1,3.2h-4.8a12.8,12.8,0,0,1,.7-3.5,8.3,8.3,0,0,1,4.5-4.5,9.5,9.5,0,0,1,3.5-.6,10.3,10.3,0,0,1,3,.4,8.7,8.7,0,0,1,2.7,1.4,7.6,7.6,0,0,1,1.9,2.1,6.1,6.1,0,0,1,.8,3,5.7,5.7,0,0,1-.9,3.2,4.2,4.2,0,0,1-2.6,1.9h0a5.6,5.6,0,0,1,4.4,5.7,7.8,7.8,0,0,1-.8,3.5,8.6,8.6,0,0,1-2,2.6,10.5,10.5,0,0,1-3,1.5,10.3,10.3,0,0,1-3.5.6,12.3,12.3,0,0,1-3.9-.6,7.9,7.9,0,0,1-2.9-1.8,8.6,8.6,0,0,1-1.9-2.9,11.2,11.2,0,0,1-.6-3.8h4.8a10.8,10.8,0,0,0,.3,1.9,5.1,5.1,0,0,0,.9,1.6,3.2,3.2,0,0,0,1.3,1,3.8,3.8,0,0,0,1.9.4,4.1,4.1,0,0,0,2.9-1,3.7,3.7,0,0,0,1.2-2.9,3.4,3.4,0,0,0-.6-2.2,2.6,2.6,0,0,0-1.4-1.1l-1.8-.4h-2v-3.6Z" fill="#fff"></path>
    </g>
    <g id="f2c3fb5a-c43c-4f33-9065-d3f3e07d95f4" data-name="&lt;4.2_S_Gruppe&gt;">
      <g>
        <rect id="fc5898f4-25f3-4854-8c67-f19bde8efcde" data-name="SVGID" x="675" y="200" width="50" height="50" fill="#d0662b"></rect>
        <g clip-path="url(#eee17c1c-9a25-49ef-98aa-a5d5521823b6)">
          <g>
            <path d="M692.5,221.2a11.3,11.3,0,1,1-8,3.3,11.4,11.4,0,0,1,8-3.3m0-1.2a12.1,12.1,0,0,0-8.8,3.7,12.4,12.4,0,0,0,0,17.6,12.3,12.3,0,0,0,17.6,0,12.4,12.4,0,0,0,0-17.6,12.1,12.1,0,0,0-8.8-3.7Z" fill="#ecc2aa"></path>
            <path d="M707.5,216.2a11.3,11.3,0,1,1-8,3.3,11.4,11.4,0,0,1,8-3.3m0-1.2a12.1,12.1,0,0,0-8.8,3.7,12.4,12.4,0,0,0,0,17.6,12.3,12.3,0,0,0,17.6,0,12.4,12.4,0,0,0,0-17.6,12.1,12.1,0,0,0-8.8-3.7Z" fill="#ecc2aa"></path>
            <path d="M702.5,231.2a11.3,11.3,0,1,1-8,3.3,11.4,11.4,0,0,1,8-3.3m0-1.2a12.1,12.1,0,0,0-8.8,3.7,12.4,12.4,0,0,0,0,17.6,12.3,12.3,0,0,0,17.6,0,12.4,12.4,0,0,0,0-17.6,12.1,12.1,0,0,0-8.8-3.7Z" fill="#ecc2aa"></path>
          </g>
        </g>
      </g>
      <rect x="625" y="200" width="50" height="50" fill="none"></rect>
      <g>
        <path d="M649,207.2v-2.3h10.3v2.3h-3.8v10.3h-2.7V207.2Z" fill="#1d1d1b"></path>
        <path d="M665.4,204.9l4.7,12.6h-2.9l-.9-2.8h-4.7l-1,2.8h-2.8l4.8-12.6Zm.2,7.7L664,208h-.1l-1.6,4.6Z" fill="#1d1d1b"></path>
      </g>
      <path d="M679.1,224.2v-4.6L690,205h4.5v15h3.4v4.2h-3.4V230h-4.8v-5.8Zm10.5-12.9-6.5,8.7h6.6v-8.7Z" fill="#fff"></path>
    </g>
    <g id="edefc338-8147-4de3-86a0-41e52feb3d31" data-name="&lt;6.2_S_Gruppe&gt;">
      <g>
        <rect id="e4a49976-94cc-457f-90c1-739be54c1394" data-name="SVGID" x="112.5" y="25" width="50" height="50" fill="#d0662b"></rect>
        <g clip-path="url(#fb0a79ca-b916-4650-afda-b03b2b2599c4)">
          <path d="M118.8,30a1.3,1.3,0,0,1-1.3,1.3,1.2,1.2,0,0,1-1.2-1.3,1.2,1.2,0,0,1,1.2-1.2A1.2,1.2,0,0,1,118.8,30Zm20,0a1.3,1.3,0,0,1-1.3,1.3,1.2,1.2,0,0,1-1.2-1.3,1.2,1.2,0,0,1,1.2-1.2A1.2,1.2,0,0,1,138.8,30Zm10,0a1.3,1.3,0,0,1-1.3,1.3,1.2,1.2,0,0,1-1.2-1.3,1.2,1.2,0,0,1,1.2-1.2A1.2,1.2,0,0,1,148.8,30Zm10,0a1.3,1.3,0,0,1-1.3,1.3,1.2,1.2,0,0,1-1.2-1.3,1.2,1.2,0,0,1,1.2-1.2A1.2,1.2,0,0,1,158.8,30Zm-40,10a1.3,1.3,0,0,1-1.3,1.3,1.2,1.2,0,0,1-1.2-1.3,1.2,1.2,0,0,1,1.2-1.2A1.2,1.2,0,0,1,118.8,40Zm20,0a1.3,1.3,0,0,1-1.3,1.3,1.2,1.2,0,0,1-1.2-1.3,1.2,1.2,0,0,1,1.2-1.2A1.2,1.2,0,0,1,138.8,40Zm10,0a1.3,1.3,0,0,1-1.3,1.3,1.2,1.2,0,0,1-1.2-1.3,1.2,1.2,0,0,1,1.2-1.2A1.2,1.2,0,0,1,148.8,40Zm10,0a1.3,1.3,0,0,1-1.3,1.3,1.2,1.2,0,0,1-1.2-1.3,1.2,1.2,0,0,1,1.2-1.2A1.2,1.2,0,0,1,158.8,40Zm-40,10a1.3,1.3,0,0,1-1.3,1.3,1.2,1.2,0,0,1-1.2-1.3,1.2,1.2,0,0,1,1.2-1.2A1.2,1.2,0,0,1,118.8,50Zm10,0a1.3,1.3,0,0,1-1.3,1.3,1.2,1.2,0,0,1-1.2-1.3,1.2,1.2,0,0,1,1.2-1.2A1.2,1.2,0,0,1,128.8,50Zm10,0a1.3,1.3,0,0,1-1.3,1.3,1.2,1.2,0,0,1-1.2-1.3,1.2,1.2,0,0,1,1.2-1.2A1.2,1.2,0,0,1,138.8,50Zm10,0a1.3,1.3,0,0,1-1.3,1.3,1.2,1.2,0,0,1-1.2-1.3,1.2,1.2,0,0,1,1.2-1.2A1.2,1.2,0,0,1,148.8,50Zm10,0a1.3,1.3,0,0,1-1.3,1.3,1.2,1.2,0,0,1-1.2-1.3,1.2,1.2,0,0,1,1.2-1.2A1.2,1.2,0,0,1,158.8,50Zm-40,10a1.3,1.3,0,0,1-1.3,1.3,1.2,1.2,0,0,1-1.2-1.3,1.2,1.2,0,0,1,1.2-1.2A1.2,1.2,0,0,1,118.8,60Zm10,0a1.3,1.3,0,0,1-1.3,1.3,1.2,1.2,0,0,1-1.2-1.3,1.2,1.2,0,0,1,1.2-1.2A1.2,1.2,0,0,1,128.8,60Zm10,0a1.3,1.3,0,0,1-1.3,1.3,1.2,1.2,0,0,1-1.2-1.3,1.2,1.2,0,0,1,1.2-1.2A1.2,1.2,0,0,1,138.8,60Zm9.9,0a1.2,1.2,0,1,1-1.2-1.2A1.3,1.3,0,0,1,148.7,60Zm10.1,0a1.3,1.3,0,0,1-1.3,1.3,1.2,1.2,0,0,1-1.2-1.3,1.2,1.2,0,0,1,1.2-1.2A1.2,1.2,0,0,1,158.8,60Zm-40,10a1.3,1.3,0,0,1-1.3,1.3,1.2,1.2,0,0,1-1.2-1.3,1.2,1.2,0,0,1,1.2-1.2A1.2,1.2,0,0,1,118.8,70Zm9.9,0a1.2,1.2,0,1,1-1.2-1.2A1.3,1.3,0,0,1,128.7,70Zm10.1,0a1.3,1.3,0,0,1-1.3,1.3,1.2,1.2,0,0,1-1.2-1.3,1.2,1.2,0,0,1,1.2-1.2A1.2,1.2,0,0,1,138.8,70Zm10,0a1.3,1.3,0,0,1-1.3,1.3,1.2,1.2,0,0,1-1.2-1.3,1.2,1.2,0,0,1,1.2-1.2A1.2,1.2,0,0,1,148.8,70Zm10,0a1.3,1.3,0,0,1-1.3,1.3,1.2,1.2,0,0,1-1.2-1.3,1.2,1.2,0,0,1,1.2-1.2A1.2,1.2,0,0,1,158.8,70Zm-15-35a1.3,1.3,0,0,1-1.3,1.3,1.2,1.2,0,0,1-1.2-1.3,1.2,1.2,0,0,1,1.2-1.2A1.2,1.2,0,0,1,143.8,35Zm10,0a1.3,1.3,0,0,1-1.3,1.3,1.2,1.2,0,0,1-1.2-1.3,1.2,1.2,0,0,1,1.2-1.2A1.2,1.2,0,0,1,153.8,35Zm-10,10a1.3,1.3,0,0,1-1.3,1.3,1.2,1.2,0,0,1-1.2-1.3,1.2,1.2,0,0,1,1.2-1.2A1.2,1.2,0,0,1,143.8,45Zm10,0a1.3,1.3,0,0,1-1.3,1.3,1.2,1.2,0,0,1-1.2-1.3,1.2,1.2,0,0,1,1.2-1.2A1.2,1.2,0,0,1,153.8,45Zm-30,10a1.3,1.3,0,0,1-1.3,1.3,1.2,1.2,0,0,1-1.2-1.3,1.2,1.2,0,0,1,1.2-1.2A1.2,1.2,0,0,1,123.8,55Zm10,0a1.3,1.3,0,0,1-1.3,1.3,1.2,1.2,0,0,1-1.2-1.3,1.2,1.2,0,0,1,1.2-1.2A1.2,1.2,0,0,1,133.8,55Zm10,0a1.3,1.3,0,0,1-1.3,1.3,1.2,1.2,0,0,1-1.2-1.3,1.2,1.2,0,0,1,1.2-1.2A1.2,1.2,0,0,1,143.8,55Zm10,0a1.3,1.3,0,0,1-1.3,1.3,1.2,1.2,0,0,1-1.2-1.3,1.2,1.2,0,0,1,1.2-1.2A1.2,1.2,0,0,1,153.8,55Zm-30,10a1.3,1.3,0,0,1-1.3,1.3,1.2,1.2,0,0,1-1.2-1.3,1.2,1.2,0,0,1,1.2-1.2A1.2,1.2,0,0,1,123.8,65Zm10,0a1.3,1.3,0,0,1-1.3,1.3,1.2,1.2,0,0,1-1.2-1.3,1.2,1.2,0,0,1,1.2-1.2A1.2,1.2,0,0,1,133.8,65Zm10,0a1.3,1.3,0,0,1-1.3,1.3,1.2,1.2,0,0,1-1.2-1.3,1.2,1.2,0,0,1,1.2-1.2A1.2,1.2,0,0,1,143.8,65Zm10,0a1.3,1.3,0,0,1-1.3,1.3,1.2,1.2,0,0,1-1.2-1.3,1.2,1.2,0,0,1,1.2-1.2A1.2,1.2,0,0,1,153.8,65Z" fill="#ecc2aa"></path>
        </g>
      </g>
      <rect x="62.5" y="25" width="50" height="50" fill="none"></rect>
      <path d="M129.7,34.2a2.9,2.9,0,0,0-2.2-.9,3.1,3.1,0,0,0-2.3.8,4.5,4.5,0,0,0-1.4,1.9,10.4,10.4,0,0,0-.8,2.5,11.2,11.2,0,0,0-.3,2.4h.1a5.9,5.9,0,0,1,2.4-2.1,7.9,7.9,0,0,1,3.2-.7,9.2,9.2,0,0,1,3.2.7,8.3,8.3,0,0,1,2.6,1.9,8.2,8.2,0,0,1,1.4,2.6,7.9,7.9,0,0,1,.5,3,10.5,10.5,0,0,1-.6,3.6,7.9,7.9,0,0,1-1.8,2.9,9.2,9.2,0,0,1-2.8,1.9,7.8,7.8,0,0,1-3.5.7,9.3,9.3,0,0,1-4.7-1.1,9.5,9.5,0,0,1-3-3,13.4,13.4,0,0,1-1.5-4.1,24.2,24.2,0,0,1-.4-4.7,18,18,0,0,1,.5-4.6,11.3,11.3,0,0,1,1.7-4.2,9.9,9.9,0,0,1,3-3.1,8.5,8.5,0,0,1,4.6-1.2,10.5,10.5,0,0,1,3,.5,9.2,9.2,0,0,1,2.4,1.3,6.5,6.5,0,0,1,1.8,2.2,11.8,11.8,0,0,1,.9,3h-4.8A4.3,4.3,0,0,0,129.7,34.2Zm-4.3,8.1a3.2,3.2,0,0,0-1.2,1.1,3.9,3.9,0,0,0-.8,1.4,11,11,0,0,0-.2,1.8,9.9,9.9,0,0,0,.2,1.7,5.3,5.3,0,0,0,.8,1.5,6.9,6.9,0,0,0,1.3,1.1,4.7,4.7,0,0,0,1.7.4,3.8,3.8,0,0,0,1.6-.4,3.2,3.2,0,0,0,1.2-1.1,3.9,3.9,0,0,0,.8-1.4,5,5,0,0,0,.2-1.7,5.5,5.5,0,0,0-.2-1.8,5.1,5.1,0,0,0-.7-1.5,4,4,0,0,0-1.2-1,3.1,3.1,0,0,0-1.7-.4A5.2,5.2,0,0,0,125.4,42.3Z" fill="#fff"></path>
      <g clip-path="url(#bf767f00-78e4-42b7-bbc4-59d799af5e2e)">
        <path d="M168.8,30a1.3,1.3,0,0,1-1.3,1.3,1.2,1.2,0,0,1-1.2-1.3,1.2,1.2,0,0,1,1.2-1.2A1.2,1.2,0,0,1,168.8,30Zm10,0a1.3,1.3,0,0,1-1.3,1.3,1.2,1.2,0,0,1-1.2-1.3,1.2,1.2,0,0,1,1.2-1.2A1.2,1.2,0,0,1,178.8,30Zm10,0a1.3,1.3,0,0,1-1.3,1.3,1.2,1.2,0,0,1-1.2-1.3,1.2,1.2,0,0,1,1.2-1.2A1.2,1.2,0,0,1,188.8,30Zm10,0a1.3,1.3,0,0,1-1.3,1.3,1.2,1.2,0,0,1-1.2-1.3,1.2,1.2,0,0,1,1.2-1.2A1.2,1.2,0,0,1,198.8,30Zm10,0a1.3,1.3,0,0,1-1.3,1.3,1.2,1.2,0,0,1-1.2-1.3,1.2,1.2,0,0,1,1.2-1.2A1.2,1.2,0,0,1,208.8,30Zm-40,10a1.3,1.3,0,0,1-1.3,1.3,1.2,1.2,0,0,1-1.2-1.3,1.2,1.2,0,0,1,1.2-1.2A1.2,1.2,0,0,1,168.8,40Zm10,0a1.3,1.3,0,0,1-1.3,1.3,1.2,1.2,0,0,1-1.2-1.3,1.2,1.2,0,0,1,1.2-1.2A1.2,1.2,0,0,1,178.8,40Zm10,0a1.3,1.3,0,0,1-1.3,1.3,1.2,1.2,0,0,1-1.2-1.3,1.2,1.2,0,0,1,1.2-1.2A1.2,1.2,0,0,1,188.8,40Zm10,0a1.3,1.3,0,0,1-1.3,1.3,1.2,1.2,0,0,1-1.2-1.3,1.2,1.2,0,0,1,1.2-1.2A1.2,1.2,0,0,1,198.8,40Zm10,0a1.3,1.3,0,0,1-1.3,1.3,1.2,1.2,0,0,1-1.2-1.3,1.2,1.2,0,0,1,1.2-1.2A1.2,1.2,0,0,1,208.8,40Zm-40,10a1.3,1.3,0,0,1-1.3,1.3,1.2,1.2,0,0,1-1.2-1.3,1.2,1.2,0,0,1,1.2-1.2A1.2,1.2,0,0,1,168.8,50Zm10,0a1.3,1.3,0,0,1-1.3,1.3,1.2,1.2,0,0,1-1.2-1.3,1.2,1.2,0,0,1,1.2-1.2A1.2,1.2,0,0,1,178.8,50Zm10,0a1.3,1.3,0,0,1-1.3,1.3,1.2,1.2,0,0,1-1.2-1.3,1.2,1.2,0,0,1,1.2-1.2A1.2,1.2,0,0,1,188.8,50Zm10,0a1.3,1.3,0,0,1-1.3,1.3,1.2,1.2,0,0,1-1.2-1.3,1.2,1.2,0,0,1,1.2-1.2A1.2,1.2,0,0,1,198.8,50Zm10,0a1.3,1.3,0,0,1-1.3,1.3,1.2,1.2,0,0,1-1.2-1.3,1.2,1.2,0,0,1,1.2-1.2A1.2,1.2,0,0,1,208.8,50Zm-40,10a1.3,1.3,0,0,1-1.3,1.3,1.2,1.2,0,0,1-1.2-1.3,1.2,1.2,0,0,1,1.2-1.2A1.2,1.2,0,0,1,168.8,60Zm10,0a1.3,1.3,0,0,1-1.3,1.3,1.2,1.2,0,0,1-1.2-1.3,1.2,1.2,0,0,1,1.2-1.2A1.2,1.2,0,0,1,178.8,60Zm10,0a1.3,1.3,0,0,1-1.3,1.3,1.2,1.2,0,0,1-1.2-1.3,1.2,1.2,0,0,1,1.2-1.2A1.2,1.2,0,0,1,188.8,60Zm10,0a1.3,1.3,0,0,1-1.3,1.3,1.2,1.2,0,0,1-1.2-1.3,1.2,1.2,0,0,1,1.2-1.2A1.2,1.2,0,0,1,198.8,60Zm10,0a1.3,1.3,0,0,1-1.3,1.3,1.2,1.2,0,0,1-1.2-1.3,1.2,1.2,0,0,1,1.2-1.2A1.2,1.2,0,0,1,208.8,60Zm-40,10a1.3,1.3,0,0,1-1.3,1.3,1.2,1.2,0,0,1-1.2-1.3,1.2,1.2,0,0,1,1.2-1.2A1.2,1.2,0,0,1,168.8,70Zm10,0a1.3,1.3,0,0,1-1.3,1.3,1.2,1.2,0,0,1-1.2-1.3,1.2,1.2,0,0,1,1.2-1.2A1.2,1.2,0,0,1,178.8,70Zm10,0a1.3,1.3,0,0,1-1.3,1.3,1.2,1.2,0,0,1-1.2-1.3,1.2,1.2,0,0,1,1.2-1.2A1.2,1.2,0,0,1,188.8,70Zm10,0a1.3,1.3,0,0,1-1.3,1.3,1.2,1.2,0,0,1-1.2-1.3,1.2,1.2,0,0,1,1.2-1.2A1.2,1.2,0,0,1,198.8,70Zm10,0a1.3,1.3,0,0,1-1.3,1.3,1.2,1.2,0,0,1-1.2-1.3,1.2,1.2,0,0,1,1.2-1.2A1.2,1.2,0,0,1,208.8,70Zm-35-35a1.3,1.3,0,0,1-1.3,1.3,1.2,1.2,0,0,1-1.2-1.3,1.2,1.2,0,0,1,1.2-1.2A1.2,1.2,0,0,1,173.8,35Zm10,0a1.3,1.3,0,0,1-1.3,1.3,1.2,1.2,0,0,1-1.2-1.3,1.2,1.2,0,0,1,1.2-1.2A1.2,1.2,0,0,1,183.8,35Zm10,0a1.3,1.3,0,0,1-1.3,1.3,1.2,1.2,0,0,1-1.2-1.3,1.2,1.2,0,0,1,1.2-1.2A1.2,1.2,0,0,1,193.8,35Zm10,0a1.3,1.3,0,0,1-1.3,1.3,1.2,1.2,0,0,1-1.2-1.3,1.2,1.2,0,0,1,1.2-1.2A1.2,1.2,0,0,1,203.8,35Zm-30,10a1.3,1.3,0,0,1-1.3,1.3,1.2,1.2,0,0,1-1.2-1.3,1.2,1.2,0,0,1,1.2-1.2A1.2,1.2,0,0,1,173.8,45Zm10,0a1.3,1.3,0,0,1-1.3,1.3,1.2,1.2,0,0,1-1.2-1.3,1.2,1.2,0,0,1,1.2-1.2A1.2,1.2,0,0,1,183.8,45Zm10,0a1.3,1.3,0,0,1-1.3,1.3,1.2,1.2,0,0,1-1.2-1.3,1.2,1.2,0,0,1,1.2-1.2A1.2,1.2,0,0,1,193.8,45Zm10,0a1.3,1.3,0,0,1-1.3,1.3,1.2,1.2,0,0,1-1.2-1.3,1.2,1.2,0,0,1,1.2-1.2A1.2,1.2,0,0,1,203.8,45Zm-30,10a1.3,1.3,0,0,1-1.3,1.3,1.2,1.2,0,0,1-1.2-1.3,1.2,1.2,0,0,1,1.2-1.2A1.2,1.2,0,0,1,173.8,55Zm10,0a1.3,1.3,0,0,1-1.3,1.3,1.2,1.2,0,0,1-1.2-1.3,1.2,1.2,0,0,1,1.2-1.2A1.2,1.2,0,0,1,183.8,55Zm10,0a1.3,1.3,0,0,1-1.3,1.3,1.2,1.2,0,0,1-1.2-1.3,1.2,1.2,0,0,1,1.2-1.2A1.2,1.2,0,0,1,193.8,55Zm10,0a1.3,1.3,0,0,1-1.3,1.3,1.2,1.2,0,0,1-1.2-1.3,1.2,1.2,0,0,1,1.2-1.2A1.2,1.2,0,0,1,203.8,55Zm-30,10a1.3,1.3,0,0,1-1.3,1.3,1.2,1.2,0,0,1-1.2-1.3,1.2,1.2,0,0,1,1.2-1.2A1.2,1.2,0,0,1,173.8,65Zm10,0a1.3,1.3,0,0,1-1.3,1.3,1.2,1.2,0,0,1-1.2-1.3,1.2,1.2,0,0,1,1.2-1.2A1.2,1.2,0,0,1,183.8,65Zm10,0a1.3,1.3,0,0,1-1.3,1.3,1.2,1.2,0,0,1-1.2-1.3,1.2,1.2,0,0,1,1.2-1.2A1.2,1.2,0,0,1,193.8,65Zm10,0a1.3,1.3,0,0,1-1.3,1.3,1.2,1.2,0,0,1-1.2-1.3,1.2,1.2,0,0,1,1.2-1.2A1.2,1.2,0,0,1,203.8,65Z" fill="#1d1d1b"></path>
      </g>
      <g>
        <path d="M86.5,32.2V29.9H96.8v2.3H93V42.5H90.3V32.2Z" fill="#1d1d1b"></path>
        <path d="M102.9,29.9l4.7,12.6h-2.9l-.9-2.8H99.1l-1,2.8H95.3l4.8-12.6Zm.2,7.7L101.5,33h-.1l-1.6,4.6Z" fill="#1d1d1b"></path>
      </g>
    </g>
    <g id="afaa8c6d-ef0b-4211-8b6b-bd0a8fc40b5b" data-name="&lt;5.3_S_Gruppe&gt;">
      <rect x="62.5" y="87.5" width="50" height="50" fill="none"></rect>
      <g>
        <rect id="a44467c9-941f-4f73-b06b-99dedee89799" data-name="SVGID" x="112.5" y="87.5" width="50" height="50" fill="#d0662b"></rect>
        <g clip-path="url(#b74aa08b-1f79-4473-89e4-bafeb1878b5e)">
          <path d="M112.5,137.5l50-50m0,10-.7.6-39.3,39.4m10,0,30-30m-20,30,20-20m-10,20,10-10m-50,0,.7-.6,39.3-39.4m-10,0-30,30m20-30-20,20m10-20-10,10" fill="none" stroke="#ecc2aa" stroke-miterlimit="10" stroke-width="1.18"></path>
          <path d="M162.5,137.5l-50-50m10,0,.6.7,39.4,39.3m0-10-30-30m30,20-20-20m20,10-10-10m0,50-.6-.7L112.5,97.5m0,10,30,30m-30-20,20,20m-20-10,10,10" fill="none" stroke="#ecc2aa" stroke-miterlimit="10" stroke-width="1.18"></path>
        </g>
      </g>
      <rect x="162.5" y="87.5" width="50" height="50" fill="none"></rect>
      <g>
        <path d="M86.5,94.7V92.4H96.8v2.3H93V105H90.3V94.7Z" fill="#fff"></path>
        <path d="M102.9,92.4l4.7,12.6h-2.9l-.9-2.8H99.1l-1,2.8H95.3l4.8-12.6Zm.2,7.7-1.6-4.6h-.1l-1.6,4.6Z" fill="#fff"></path>
      </g>
      <polyline points="162.5 87.5 212.5 97.5 212.5 147.5 162.5 137.5" fill="#d0662b"></polyline>
      <path d="M123.8,96.7l-1,5.7h.1a5.4,5.4,0,0,1,2.2-1.5,7.7,7.7,0,0,1,2.7-.4,6.6,6.6,0,0,1,3.2.7,5.5,5.5,0,0,1,2.4,1.8,7.2,7.2,0,0,1,1.5,2.7,8.8,8.8,0,0,1,.6,3.3,8.6,8.6,0,0,1-.8,3.6,10,10,0,0,1-2,2.9,7.9,7.9,0,0,1-2.9,1.8,9.2,9.2,0,0,1-3.6.7,13.4,13.4,0,0,1-3.5-.5,7.3,7.3,0,0,1-2.9-1.5,7.2,7.2,0,0,1-2.1-2.5,7.4,7.4,0,0,1-.8-3.4H122a3.9,3.9,0,0,0,1.3,2.7,3.7,3.7,0,0,0,2.8,1,3.9,3.9,0,0,0,1.8-.4,3.5,3.5,0,0,0,1.3-1.1,3.8,3.8,0,0,0,.9-1.5,5.7,5.7,0,0,0,.3-1.8,5.2,5.2,0,0,0-.3-1.8,5.3,5.3,0,0,0-.8-1.5,3.3,3.3,0,0,0-1.4-1,3.4,3.4,0,0,0-1.8-.4,4.2,4.2,0,0,0-3.8,2h-4.6l2.4-13.8h14v4.2Z" fill="#fff"></path>
    </g>
    <g id="f9e50939-c1af-47d4-abdc-0298311fb9bf" data-name="&lt;7.2_S_Gruppe&gt;">
      <rect x="112.5" y="537.5" width="50" height="50" fill="#d0662b"></rect>
      <path d="M112.5,587.5l50-50m0,10-.7.6-39.3,39.4m10,0,30-30m-20,30,20-20m-10,20,10-10m-50,0,.7-.6,39.3-39.4m-10,0-30,30m20-30-20,20m10-20-10,10" fill="none" stroke="#ecc2aa" stroke-miterlimit="10" stroke-width="1.18"></path>
      <path d="M162.5,587.5l-50-50m10,0,.6.7,39.4,39.3m0-10-30-30m30,20-20-20m10,0,10,10m-10,40-.6-.7-39.4-39.3m0,10,30,30m-10,0-20-20m0,10,10,10" fill="none" stroke="#ecc2aa" stroke-miterlimit="10" stroke-width="1.18"></path>
      <path d="M152.5,545.4a2.1,2.1,0,0,0-2.1,2.1,2.1,2.1,0,0,0,4.2,0A2.1,2.1,0,0,0,152.5,545.4Zm-5,5a2.1,2.1,0,0,0-2.1,2.1,2.1,2.1,0,0,0,4.2,0A2.1,2.1,0,0,0,147.5,550.4Zm-5,5a2.1,2.1,0,0,0-2.1,2.1,2.1,2.1,0,0,0,4.2,0A2.1,2.1,0,0,0,142.5,555.4Zm5,5a2.1,2.1,0,0,0-2.1,2.1,2.1,2.1,0,0,0,4.2,0A2.1,2.1,0,0,0,147.5,560.4Zm5,5a2.1,2.1,0,0,0-2.1,2.1,2.1,2.1,0,0,0,4.2,0A2.1,2.1,0,0,0,152.5,565.4Zm-5,5a2.1,2.1,0,0,0-2.1,2.1,2.1,2.1,0,0,0,4.2,0A2.1,2.1,0,0,0,147.5,570.4Zm-15,5a2.1,2.1,0,0,0-2.1,2.1,2.1,2.1,0,0,0,4.2,0A2.1,2.1,0,0,0,132.5,575.4Zm10,0a2.1,2.1,0,0,0-2.1,2.1,2.1,2.1,0,0,0,4.2,0A2.1,2.1,0,0,0,142.5,575.4Zm-15,5a2.1,2.1,0,0,0-2.1,2.1,2.1,2.1,0,0,0,4.2,0A2.1,2.1,0,0,0,127.5,580.4Zm30-40a2.1,2.1,0,0,0-2.1,2.1,2.1,2.1,0,0,0,4.2,0A2.1,2.1,0,0,0,157.5,540.4Zm-20,30a2.1,2.1,0,1,0,2.1,2.1A2.1,2.1,0,0,0,137.5,570.4Z" fill="#fff"></path>
      <rect x="62.5" y="537.5" width="50" height="50" fill="none"></rect>
      <g>
        <path d="M86.5,544.7v-2.3H96.8v2.3H93V555H90.3V544.7Z" fill="#1d1d1b"></path>
        <path d="M102.9,542.4l4.7,12.6h-2.9l-.9-2.8H99.1l-1,2.8H95.3l4.8-12.6Zm.2,7.7-1.6-4.6h-.1l-1.6,4.6Z" fill="#1d1d1b"></path>
      </g>
      <path d="M131.3,551.1a28.7,28.7,0,0,0-2.5,5.3,40.5,40.5,0,0,0-1.6,5.7q-.5,2.9-.6,5.4h-5.4a37.1,37.1,0,0,1,2.6-10.8,38.4,38.4,0,0,1,5.8-9.5H117.7v-4.7h17.1v4.3A21.8,21.8,0,0,0,131.3,551.1Z" fill="#fff"></path>
    </g>
  </g>
</svg>
